G04 DipTrace 4.3.0.1*
G04 LoRa_4808.gbs*
%MOIN*%
G04 #@! TF.FileFunction,Soldermask,Bot*
G04 #@! TF.Part,Single*
%AMOUTLINE37*
4,1,28,
0.009182,-0.022245,
-0.009186,-0.022243,
-0.012017,-0.02187,
-0.014774,-0.020728,
-0.017142,-0.01891,
-0.018959,-0.016542,
-0.020101,-0.013784,
-0.020473,-0.010954,
-0.020471,0.010958,
-0.020099,0.013788,
-0.018956,0.016546,
-0.017139,0.018914,
-0.01477,0.020731,
-0.012013,0.021873,
-0.009182,0.022245,
0.009186,0.022243,
0.012017,0.02187,
0.014774,0.020728,
0.017142,0.01891,
0.018959,0.016542,
0.020101,0.013784,
0.020473,0.010954,
0.020471,-0.010958,
0.020099,-0.013788,
0.018956,-0.016546,
0.017139,-0.018914,
0.01477,-0.020731,
0.012013,-0.021873,
0.009182,-0.022245,
0*%
%AMOUTLINE40*
4,1,28,
-0.009182,0.022245,
0.009186,0.022243,
0.012017,0.02187,
0.014774,0.020728,
0.017142,0.01891,
0.018959,0.016542,
0.020101,0.013784,
0.020473,0.010954,
0.020471,-0.010958,
0.020099,-0.013788,
0.018956,-0.016546,
0.017139,-0.018914,
0.01477,-0.020731,
0.012013,-0.021873,
0.009182,-0.022245,
-0.009186,-0.022243,
-0.012017,-0.02187,
-0.014774,-0.020728,
-0.017142,-0.01891,
-0.018959,-0.016542,
-0.020101,-0.013784,
-0.020473,-0.010954,
-0.020471,0.010958,
-0.020099,0.013788,
-0.018956,0.016546,
-0.017139,0.018914,
-0.01477,0.020731,
-0.012013,0.021873,
-0.009182,0.022245,
0*%
%AMOUTLINE43*
4,1,28,
-0.03113,0.024468,
0.031128,0.024469,
0.033843,0.024112,
0.036492,0.023015,
0.038767,0.021269,
0.040513,0.018994,
0.041611,0.016344,
0.041968,0.01363,
0.041969,-0.013628,
0.041612,-0.016342,
0.040514,-0.018992,
0.038768,-0.021267,
0.036493,-0.023013,
0.033844,-0.02411,
0.03113,-0.024468,
-0.031128,-0.024469,
-0.033843,-0.024112,
-0.036492,-0.023015,
-0.038767,-0.021269,
-0.040513,-0.018994,
-0.041611,-0.016344,
-0.041968,-0.01363,
-0.041969,0.013628,
-0.041612,0.016342,
-0.040514,0.018992,
-0.038768,0.021267,
-0.036493,0.023013,
-0.033844,0.02411,
-0.03113,0.024468,
0*%
%AMOUTLINE46*
4,1,28,
-0.035437,0.021968,
0.035436,0.021969,
0.037891,0.021646,
0.040299,0.020649,
0.042367,0.019062,
0.043954,0.016994,
0.044952,0.014585,
0.045275,0.01213,
0.045276,-0.012128,
0.044953,-0.014583,
0.043955,-0.016992,
0.042368,-0.01906,
0.0403,-0.020647,
0.037892,-0.021644,
0.035437,-0.021968,
-0.035436,-0.021969,
-0.037891,-0.021646,
-0.040299,-0.020649,
-0.042367,-0.019062,
-0.043954,-0.016994,
-0.044952,-0.014585,
-0.045275,-0.01213,
-0.045276,0.012128,
-0.044953,0.014583,
-0.043955,0.016992,
-0.042368,0.01906,
-0.0403,0.020647,
-0.037892,0.021644,
-0.035437,0.021968,
0*%
%AMOUTLINE55*
4,1,28,
0.008594,-0.023031,
-0.008594,-0.023031,
-0.011118,-0.022699,
-0.013591,-0.021675,
-0.015715,-0.020045,
-0.017344,-0.017922,
-0.018368,-0.015449,
-0.018701,-0.012924,
-0.018701,0.012924,
-0.018368,0.015449,
-0.017344,0.017922,
-0.015715,0.020045,
-0.013591,0.021675,
-0.011118,0.022699,
-0.008594,0.023031,
0.008594,0.023031,
0.011118,0.022699,
0.013591,0.021675,
0.015715,0.020045,
0.017344,0.017922,
0.018368,0.015449,
0.018701,0.012924,
0.018701,-0.012924,
0.018368,-0.015449,
0.017344,-0.017922,
0.015715,-0.020045,
0.013591,-0.021675,
0.011118,-0.022699,
0.008594,-0.023031,
0*%
%AMOUTLINE58*
4,1,28,
-0.008594,0.023031,
0.008594,0.023031,
0.011118,0.022699,
0.013591,0.021675,
0.015715,0.020045,
0.017344,0.017922,
0.018368,0.015449,
0.018701,0.012924,
0.018701,-0.012924,
0.018368,-0.015449,
0.017344,-0.017922,
0.015715,-0.020045,
0.013591,-0.021675,
0.011118,-0.022699,
0.008594,-0.023031,
-0.008594,-0.023031,
-0.011118,-0.022699,
-0.013591,-0.021675,
-0.015715,-0.020045,
-0.017344,-0.017922,
-0.018368,-0.015449,
-0.018701,-0.012924,
-0.018701,0.012924,
-0.018368,0.015449,
-0.017344,0.017922,
-0.015715,0.020045,
-0.013591,0.021675,
-0.011118,0.022699,
-0.008594,0.023031,
0*%
%ADD50R,0.148819X0.053937*%
%ADD52C,0.079528*%
%ADD54R,0.079528X0.079528*%
%ADD56R,0.173937X0.063937*%
%ADD58C,0.053937*%
%ADD105OUTLINE37*%
%ADD108OUTLINE40*%
%ADD111OUTLINE43*%
%ADD114OUTLINE46*%
%ADD123OUTLINE55*%
%ADD126OUTLINE58*%
%FSLAX26Y26*%
G04*
G70*
G90*
G75*
G01*
G04 BotMask*
%LPD*%
D105*
X523755Y257587D3*
D108*
X590290Y257581D3*
D111*
X2003937Y157479D3*
D58*
X1988543D3*
D114*
X2077442Y99607D3*
X2077440Y215355D3*
D56*
X2052735Y257480D3*
X2052740Y57480D3*
D54*
X70866Y70866D3*
D52*
X170866Y70869D3*
X270866Y70872D3*
X370866Y70875D3*
X470866Y70877D3*
X570866Y70880D3*
X670866Y70883D3*
X770866Y70886D3*
X870866Y70889D3*
X970866Y70892D3*
X1070866Y70895D3*
X1170866Y70898D3*
D50*
X275590Y468504D3*
X275595Y368504D3*
X275600Y268504D3*
X100796Y268496D3*
X100792Y368496D3*
X100787Y468496D3*
D54*
X70866Y670866D3*
D52*
X170866Y670869D3*
X270866Y670872D3*
X370866Y670875D3*
X470866Y670877D3*
X570866Y670880D3*
X670866Y670883D3*
X770866Y670886D3*
X870866Y670889D3*
X970866Y670892D3*
X1070866Y670895D3*
X1170866Y670898D3*
D54*
X2000000Y670866D3*
D52*
X2100000D3*
D123*
X653285Y257586D3*
D126*
X719820Y257582D3*
M02*
