G04 DipTrace 4.3.0.1*
G04 LoRa_4808.gbo*
%MOIN*%
G04 #@! TF.FileFunction,Legend,Bot*
G04 #@! TF.Part,Single*
%ADD10C,0.009843*%
%ADD24C,0.005906*%
%ADD64C,0.006176*%
%ADD65C,0.009264*%
%ADD66C,0.00772*%
%ADD67C,0.005512*%
%FSLAX26Y26*%
G04*
G70*
G90*
G75*
G01*
G04 BotSilk*
%LPD*%
X551115Y239868D2*
D24*
X562926Y239867D1*
X551118Y275301D2*
X562929Y275300D1*
X496391Y240267D2*
X496394Y274912D1*
G36*
X66131Y520457D2*
X66013Y518658D1*
X65662Y516891D1*
X65082Y515184D1*
X64285Y513567D1*
X63284Y512069D1*
X62096Y510713D1*
X60741Y509525D1*
X59242Y508524D1*
X57626Y507726D1*
X55919Y507147D1*
X54151Y506795D1*
X52353Y506677D1*
X50554Y506795D1*
X48786Y507147D1*
X47080Y507726D1*
X45463Y508523D1*
X43965Y509524D1*
X42609Y510713D1*
X41421Y512068D1*
X40420Y513566D1*
X39622Y515183D1*
X39043Y516889D1*
X38691Y518657D1*
X38573Y520455D1*
Y520462D1*
X38691Y522261D1*
X39043Y524028D1*
X39622Y525735D1*
X40419Y527352D1*
X41420Y528850D1*
X42608Y530205D1*
X43963Y531394D1*
X45462Y532395D1*
X47078Y533192D1*
X48785Y533772D1*
X50553Y534124D1*
X52351Y534242D1*
X54150Y534124D1*
X55918Y533772D1*
X57624Y533193D1*
X59241Y532396D1*
X60740Y531395D1*
X62095Y530206D1*
X63283Y528851D1*
X64285Y527353D1*
X65082Y525736D1*
X65661Y524030D1*
X66013Y522262D1*
X66131Y520463D1*
Y520457D1*
G37*
X88189Y514573D2*
D10*
Y518487D1*
X288184Y518497D1*
Y514582D1*
X88203Y218495D2*
X288198Y218505D1*
X88203Y218495D2*
Y222443D1*
X288198Y218505D2*
Y222452D1*
X678678Y238687D2*
D24*
X694426Y238686D1*
X678679Y276482D2*
X694427Y276481D1*
G36*
X354331Y468504D2*
X393701Y507874D1*
Y480315D1*
X429134D1*
Y456693D1*
X393701D1*
Y429134D1*
X354331Y468504D1*
G37*
G36*
X1590551Y685039D2*
X1588391Y682902D1*
X1584072Y676489D1*
X1581912Y672214D1*
X1577592Y665801D1*
X1573272Y657250D1*
X1568952Y650837D1*
X1564633Y642287D1*
X1560313Y635874D1*
X1555993Y627324D1*
X1551673Y620911D1*
X1549513Y616636D1*
X1545194Y610223D1*
X1540874Y601672D1*
X1536554Y595259D1*
X1530074Y582434D1*
Y578158D1*
X1536554Y565333D1*
X1540874Y558920D1*
X1545194Y550369D1*
X1549513Y543956D1*
X1551673Y539681D1*
X1555993Y533268D1*
X1560313Y524718D1*
X1564633Y518305D1*
X1568952Y509755D1*
X1573272Y503342D1*
X1575432Y499066D1*
X1579752Y492654D1*
X1584072Y484103D1*
X1588391Y477690D1*
X1592711Y469140D1*
X1597031Y462727D1*
X1601351Y454176D1*
X1605670Y447764D1*
X1607830Y443488D1*
X1612150Y437076D1*
X1616470Y428525D1*
X1620790Y422112D1*
X1625109Y413562D1*
X1629429Y407149D1*
X1633749Y398598D1*
X1638069Y392186D1*
X1640229Y387910D1*
X1644548Y381497D1*
X1648868Y372947D1*
X1653188Y366534D1*
X1657508Y357984D1*
X1661827Y351571D1*
X1666147Y343020D1*
X1670467Y336607D1*
X1672627Y332332D1*
X1676947Y325919D1*
X1681266Y317369D1*
X1685586Y310956D1*
X1689906Y302405D1*
X1694226Y295993D1*
X1696386Y291717D1*
X1700705Y285305D1*
X1705025Y276754D1*
X1709345Y270341D1*
X1713665Y261791D1*
X1717984Y255378D1*
X1722304Y246827D1*
X1726624Y240415D1*
X1728784Y236139D1*
X1733104Y231864D1*
X1782781D1*
Y234002D1*
X1780621Y238277D1*
X1776301Y244690D1*
X1771982Y253240D1*
X1767662Y259653D1*
X1763342Y268204D1*
X1759022Y274616D1*
X1754703Y283167D1*
X1750383Y289580D1*
X1748223Y293855D1*
X1743903Y300268D1*
X1739583Y308818D1*
X1735264Y315231D1*
X1730944Y323782D1*
X1726624Y330195D1*
X1724464Y334470D1*
X1720144Y340883D1*
X1715825Y349433D1*
X1711505Y355846D1*
X1707185Y364396D1*
X1702865Y370809D1*
X1698545Y379360D1*
X1694226Y385773D1*
X1692066Y390048D1*
X1687746Y396461D1*
X1683426Y405011D1*
X1679107Y411424D1*
X1674787Y419975D1*
X1670467Y426387D1*
X1666147Y434938D1*
X1661827Y441351D1*
X1659668Y445626D1*
X1655348Y452039D1*
X1651028Y460589D1*
X1646708Y467002D1*
X1642388Y475553D1*
X1638069Y481966D1*
X1635909Y486241D1*
X1633749Y488378D1*
X1631589D1*
X1627269Y486241D1*
X1622949D1*
X1618630Y488378D1*
X1612150Y490516D1*
X1607830Y492654D1*
X1599191Y501204D1*
Y503342D1*
X1597031Y511892D1*
X1594871Y514030D1*
Y518305D1*
X1597031Y520443D1*
X1599191Y526856D1*
X1603510Y533268D1*
X1609990Y539681D1*
X1616470Y541819D1*
X1622230Y543956D1*
X1627989D1*
X1633749Y541819D1*
X1642388Y537544D1*
X1648868Y531131D1*
Y528993D1*
X1651028Y524718D1*
X1653188Y522580D1*
Y507617D1*
X1651028Y505479D1*
X1648868Y501204D1*
X1644548Y494791D1*
Y490516D1*
X1648868Y484103D1*
X1651028Y479828D1*
X1655348Y473415D1*
X1659668Y464865D1*
X1663987Y458452D1*
X1668307Y449901D1*
X1672627Y443488D1*
X1676947Y434938D1*
X1681266Y428525D1*
X1683426Y424250D1*
X1687746Y417837D1*
X1692066Y409286D1*
X1696386Y402874D1*
X1700705Y394323D1*
X1705025Y387910D1*
X1709345Y379360D1*
X1713665Y372947D1*
X1715825Y368672D1*
X1720144Y362259D1*
X1724464Y353708D1*
X1728784Y347296D1*
X1733104Y338745D1*
X1737423Y332332D1*
X1739583Y328057D1*
X1743903Y321644D1*
X1748223Y313094D1*
X1752543Y306681D1*
X1756862Y298130D1*
X1761182Y291717D1*
X1765502Y283167D1*
X1769822Y276754D1*
X1771982Y272479D1*
X1776301Y266066D1*
X1780621Y257515D1*
X1784941Y251103D1*
X1789261Y242552D1*
X1793580Y236139D1*
X1795740Y231864D1*
X1854057D1*
Y234002D1*
X1849738Y242552D1*
X1845418Y248965D1*
X1841098Y257515D1*
X1836778Y263928D1*
X1832458Y272479D1*
X1828139Y278892D1*
X1823819Y287442D1*
X1819499Y293855D1*
X1817339Y298130D1*
X1813019Y304543D1*
X1808700Y313094D1*
X1804380Y319506D1*
X1800060Y328057D1*
X1795740Y334470D1*
X1793580Y338745D1*
X1789261Y345158D1*
X1784941Y353708D1*
X1780621Y360121D1*
X1776301Y368672D1*
X1771982Y375085D1*
X1767662Y383635D1*
X1763342Y390048D1*
X1761182Y394323D1*
X1756862Y400736D1*
X1752543Y409286D1*
X1748223Y415699D1*
X1743903Y424250D1*
X1739583Y430663D1*
X1735264Y439213D1*
X1730944Y445626D1*
X1728784Y449901D1*
X1724464Y456314D1*
X1720144Y464865D1*
X1715825Y471277D1*
X1711505Y479828D1*
X1707185Y486241D1*
X1702865Y494791D1*
X1698545Y501204D1*
X1696386Y505479D1*
X1692066Y511892D1*
X1687746Y520443D1*
X1683426Y526856D1*
X1679107Y535406D1*
X1674787Y541819D1*
X1672627Y546094D1*
X1668307Y552507D1*
X1663987Y561057D1*
X1659668Y567470D1*
X1655348Y576021D1*
X1651028Y582434D1*
X1646708Y590984D1*
X1642388Y597397D1*
X1640229Y601672D1*
X1635909Y608085D1*
X1631589Y616636D1*
X1627269Y623048D1*
X1622949Y631599D1*
X1618630Y638012D1*
X1614310Y646562D1*
X1609990Y652975D1*
X1607830Y657250D1*
X1603510Y663663D1*
X1599191Y672214D1*
X1594871Y678627D1*
X1592711Y682902D1*
X1590551Y685039D1*
G37*
G36*
X1517115Y561057D2*
X1516405Y558464D1*
X1514955Y556782D1*
X1510635Y550369D1*
X1508476Y546094D1*
X1504156Y539681D1*
X1499836Y531131D1*
X1495516Y524718D1*
X1491196Y516167D1*
X1486877Y509755D1*
X1484717Y505479D1*
X1480397Y499066D1*
X1476077Y490516D1*
X1471757Y484103D1*
X1467438Y475553D1*
X1463118Y469140D1*
X1458798Y460589D1*
X1454478Y454176D1*
X1452318Y449901D1*
X1447999Y443488D1*
X1443679Y434938D1*
X1439359Y428525D1*
X1435039Y419975D1*
X1430720Y413562D1*
X1428560Y409286D1*
X1424240Y402874D1*
X1419920Y394323D1*
X1415600Y387910D1*
X1411281Y379360D1*
X1406961Y372947D1*
X1402641Y364396D1*
X1398321Y357984D1*
X1396161Y353708D1*
X1391842Y347296D1*
X1387522Y338745D1*
X1383202Y332332D1*
X1378882Y323782D1*
X1374563Y317369D1*
X1372403Y313094D1*
X1368083Y306681D1*
X1363763Y298130D1*
X1359443Y291717D1*
X1355124Y283167D1*
X1350804Y276754D1*
X1346484Y268204D1*
X1342164Y261791D1*
X1340004Y257515D1*
X1335685Y251103D1*
X1331365Y242552D1*
X1327045Y236139D1*
Y231864D1*
X1383202D1*
X1387522Y236139D1*
X1391842Y244690D1*
X1396161Y251103D1*
X1398321Y255378D1*
X1402641Y261791D1*
X1406961Y270341D1*
X1411281Y276754D1*
X1415600Y285305D1*
X1419920Y291717D1*
X1424240Y300268D1*
X1428560Y306681D1*
X1430720Y310956D1*
X1435039Y317369D1*
X1439359Y325919D1*
X1432879Y334470D1*
X1430720Y340883D1*
X1428560Y343020D1*
Y351571D1*
X1430720Y353708D1*
X1432879Y360121D1*
Y362259D1*
X1441519Y370809D1*
X1445839Y372947D1*
X1453758Y375085D1*
X1461678D1*
X1469598Y372947D1*
X1473917Y370809D1*
X1484717Y360121D1*
Y355846D1*
X1486877Y353708D1*
Y340883D1*
X1484717Y338745D1*
Y334470D1*
X1473917Y323782D1*
X1469598Y321644D1*
X1447999Y319506D1*
X1443679Y313094D1*
X1441519Y308818D1*
X1437199Y302405D1*
X1432879Y293855D1*
X1428560Y287442D1*
X1424240Y278892D1*
X1419920Y272479D1*
X1415600Y263928D1*
X1411281Y257515D1*
X1409121Y253240D1*
X1404801Y246827D1*
X1398321Y234002D1*
Y231864D1*
X1709345D1*
Y234002D1*
X1705025Y242552D1*
X1700705Y248965D1*
X1696386Y257515D1*
X1692066Y263928D1*
X1687746Y272479D1*
X1683426Y278892D1*
X1681266Y283167D1*
X1676947Y289580D1*
X1672627Y298130D1*
X1668307Y304543D1*
X1663987Y313094D1*
X1659668Y319506D1*
X1655348Y328057D1*
X1651028Y334470D1*
X1648868Y338745D1*
X1644548Y345158D1*
X1642388Y347296D1*
X1530074Y351571D1*
X1530494Y353086D1*
X1532234Y355846D1*
X1534394Y360121D1*
X1538714Y366534D1*
X1543034Y375085D1*
X1547353Y381497D1*
X1549513Y385773D1*
X1553833Y392186D1*
X1558153Y400736D1*
X1562473Y407149D1*
X1566792Y415699D1*
X1571112Y422112D1*
X1575432Y430663D1*
X1579752Y437076D1*
X1584072Y445626D1*
Y449901D1*
X1581912Y454176D1*
X1577592Y460589D1*
X1575432Y464865D1*
X1571112Y471277D1*
X1566792Y479828D1*
X1562473Y486241D1*
X1558153Y494791D1*
X1553833Y501204D1*
X1549513Y509755D1*
X1545194Y516167D1*
X1543034Y520443D1*
X1538714Y526856D1*
X1534394Y535406D1*
X1530074Y541819D1*
X1525755Y550369D1*
X1521435Y556782D1*
X1519275Y561057D1*
X1517115D1*
G37*
G36*
X1622949Y533268D2*
X1616470Y531131D1*
X1609990Y524718D1*
X1607830Y520443D1*
Y509755D1*
X1609990Y505479D1*
X1616470Y499066D1*
X1631589D1*
X1635909Y501204D1*
X1640229Y505479D1*
X1642388Y511892D1*
Y518305D1*
X1640229Y524718D1*
X1635909Y528993D1*
X1627269Y533268D1*
X1622949D1*
G37*
G36*
X1452318Y364396D2*
X1447999Y362259D1*
X1443679Y357984D1*
X1441519Y353708D1*
Y340883D1*
X1443679Y336607D1*
X1447999Y332332D1*
X1452318Y330195D1*
X1463118D1*
X1467438Y332332D1*
X1473917Y338745D1*
X1476077Y345158D1*
Y349433D1*
X1473917Y355846D1*
X1467438Y362259D1*
X1463118Y364396D1*
X1452318D1*
G37*
G36*
X1290327Y174148D2*
X1281687Y165598D1*
X1279528Y161323D1*
Y159185D1*
X1283847Y157047D1*
X1292487D1*
X1292907Y158563D1*
X1294647Y161323D1*
X1300407Y163460D1*
X1306166D1*
X1311926Y161323D1*
X1314086Y159185D1*
Y124983D1*
X1306886Y122845D1*
X1299686D1*
X1292487Y124983D1*
Y127121D1*
X1283847D1*
X1279528Y124983D1*
Y122845D1*
X1281687Y118570D1*
X1288167Y112157D1*
X1292487Y110020D1*
X1316246D1*
X1327045Y120708D1*
Y163460D1*
X1316246Y174148D1*
X1290327D1*
G37*
G36*
X1387522D2*
Y124983D1*
X1359443Y122845D1*
X1357283Y120708D1*
Y112157D1*
X1359443Y110020D1*
X1400481D1*
Y174148D1*
X1387522D1*
G37*
G36*
X1443679Y150635D2*
Y146359D1*
X1441519Y144222D1*
X1430720Y112157D1*
Y110020D1*
X1443679D1*
X1445839Y112157D1*
X1447999Y118570D1*
Y120708D1*
X1455918Y122845D1*
X1463838D1*
X1471757Y120708D1*
X1473917Y118570D1*
Y114295D1*
X1476077Y110020D1*
X1489037D1*
Y114295D1*
X1480397Y139946D1*
X1478237Y144222D1*
X1469598Y169873D1*
X1467438Y174148D1*
X1452318D1*
X1445839Y154910D1*
X1443679Y150635D1*
X1458798D1*
X1460411Y152007D1*
X1461530Y151882D1*
X1463118Y150635D1*
Y146359D1*
X1465278Y139946D1*
X1467438Y137809D1*
X1463118Y135671D1*
X1458798D1*
X1454478Y137809D1*
Y142084D1*
X1456638Y144222D1*
X1458798Y150635D1*
X1443679D1*
G37*
G36*
X1519275Y159185D2*
Y152772D1*
X1521435Y144222D1*
X1530074Y135671D1*
X1529364Y133078D1*
X1527914Y131396D1*
X1521435Y118570D1*
X1517115Y112157D1*
Y110020D1*
X1532234D1*
X1543034Y131396D1*
Y133534D1*
X1546634Y135671D1*
X1550233D1*
X1553833Y133534D1*
X1555993Y131396D1*
Y110020D1*
X1566792D1*
Y174148D1*
X1532234D1*
X1527914Y172011D1*
X1521435Y165598D1*
X1519275Y159185D1*
X1532234D1*
X1540154Y161323D1*
X1548073D1*
X1555993Y159185D1*
Y148497D1*
X1548793Y146359D1*
X1541594D1*
X1534394Y148497D1*
X1532234Y150635D1*
Y159185D1*
X1519275D1*
G37*
G36*
X1603510Y174148D2*
Y161323D1*
X1633749Y159185D1*
Y150635D1*
X1603510Y148497D1*
Y137809D1*
X1605670Y135671D1*
X1633749Y133534D1*
Y124983D1*
X1603510Y122845D1*
Y110020D1*
X1644548D1*
Y174148D1*
X1603510D1*
G37*
G36*
X1676947D2*
Y172011D1*
X1685586Y159185D1*
X1692066Y150635D1*
X1698545Y144222D1*
X1697836Y141628D1*
X1696386Y139946D1*
X1676947Y114295D1*
X1674787Y110020D1*
X1689906D1*
X1696386Y116433D1*
X1700705Y122845D1*
X1707185Y131396D1*
X1707538Y133049D1*
X1708863Y134801D1*
X1709927Y134751D1*
X1711505Y133534D1*
Y110020D1*
X1724464D1*
Y174148D1*
X1711505D1*
Y150635D1*
X1709215Y148313D1*
X1708101Y148656D1*
X1706714Y151009D1*
X1707185Y152772D1*
X1700705Y161323D1*
X1696386Y167735D1*
X1689906Y174148D1*
X1676947D1*
G37*
G36*
X1769822Y150635D2*
X1767662Y148497D1*
X1756862Y116433D1*
X1754703Y112157D1*
Y110020D1*
X1767662D1*
X1769822Y112157D1*
X1771982Y116433D1*
Y120708D1*
X1779901Y122845D1*
X1787821D1*
X1795740Y120708D1*
X1797900Y118570D1*
Y114295D1*
X1800060Y110020D1*
X1813019D1*
Y116433D1*
X1810860Y120708D1*
X1793580Y172011D1*
X1791421Y174148D1*
X1776301D1*
X1769822Y154910D1*
Y150635D1*
X1782781D1*
X1784394Y152007D1*
X1785513Y151882D1*
X1787101Y150635D1*
Y146359D1*
X1789261Y139946D1*
X1791421Y137809D1*
X1787101Y135671D1*
X1782781D1*
X1778461Y137809D1*
X1778881Y139324D1*
X1780621Y142084D1*
X1782781Y148497D1*
Y150635D1*
X1769822D1*
G37*
G36*
X1845418Y174148D2*
Y110020D1*
X1858377D1*
Y139946D1*
X1859990Y141319D1*
X1861083Y141140D1*
X1862312Y139372D1*
X1862697Y137809D1*
X1869177Y124983D1*
X1877816D1*
X1884296Y137809D1*
X1884648Y139462D1*
X1885973Y141214D1*
X1887038Y141164D1*
X1888615Y139946D1*
Y110020D1*
X1901575D1*
Y174148D1*
X1888615D1*
X1886456Y172011D1*
X1875656Y150635D1*
X1875108Y148113D1*
X1873370Y146162D1*
X1872257Y146518D1*
X1870865Y148872D1*
X1871336Y150635D1*
X1860537Y172011D1*
X1858377Y174148D1*
X1845418D1*
G37*
G36*
X1685586Y80093D2*
Y67267D1*
X1689906Y62992D1*
X1696386D1*
X1700705Y67267D1*
Y82231D1*
X1694226Y90781D1*
X1692066Y92919D1*
X1689906D1*
Y90781D1*
X1685586Y82231D1*
Y80093D1*
X1687746D1*
X1691346Y82231D1*
X1694946D1*
X1698545Y80093D1*
Y69405D1*
X1694946Y67267D1*
X1691346D1*
X1687746Y69405D1*
Y80093D1*
X1685586D1*
G37*
G36*
X1279528Y86506D2*
Y82231D1*
X1290327Y80093D1*
Y77955D1*
X1279528Y75818D1*
Y73680D1*
X1290327Y71543D1*
Y69405D1*
X1279528Y67267D1*
Y65130D1*
X1292487D1*
Y84368D1*
X1290327Y86506D1*
X1279528D1*
G37*
G36*
X1305446D2*
X1303286Y84368D1*
X1305446Y82231D1*
X1309766Y80093D1*
Y65130D1*
X1311926D1*
Y80093D1*
X1318406Y82231D1*
Y86506D1*
X1305446D1*
G37*
G36*
X1344324D2*
X1342164Y84368D1*
X1337844Y77955D1*
X1337296Y75433D1*
X1335558Y73483D1*
X1334440Y73843D1*
X1333525Y75818D1*
Y84368D1*
X1331365D1*
Y65130D1*
X1335685D1*
X1340004Y73680D1*
X1340357Y75333D1*
X1341682Y77086D1*
X1342747Y77035D1*
X1344324Y75818D1*
Y65130D1*
X1346484D1*
Y84368D1*
X1344324Y86506D1*
G37*
G36*
X1361603Y75818D2*
X1360893Y73224D1*
X1359443Y71543D1*
X1357283Y65130D1*
X1361603D1*
Y67267D1*
X1365203Y69405D1*
X1368803D1*
X1372403Y67267D1*
Y65130D1*
X1376722D1*
X1372403Y77955D1*
X1368083Y86506D1*
X1365923D1*
X1363763Y84368D1*
X1361603Y77955D1*
Y75818D1*
X1363763D1*
X1366075Y77094D1*
X1367912Y76854D1*
X1369671Y74907D1*
X1369461Y73131D1*
X1367175Y71374D1*
X1365196Y71709D1*
X1363045Y74206D1*
X1363763Y75818D1*
X1361603D1*
G37*
G36*
X1391842Y86506D2*
X1387522Y82231D1*
Y80093D1*
X1389682D1*
X1392562Y82231D1*
X1395442D1*
X1398321Y80093D1*
Y69405D1*
X1395442Y67267D1*
X1392562D1*
X1389682Y69405D1*
X1387522D1*
Y67267D1*
X1391842Y62992D1*
X1396161D1*
X1400481Y65130D1*
X1402641Y69405D1*
Y80093D1*
X1400481Y84368D1*
X1396161Y86506D1*
X1391842D1*
G37*
G36*
X1415600D2*
Y65130D1*
X1417760D1*
Y84368D1*
X1415600Y86506D1*
G37*
G36*
X1441519D2*
X1439359Y84368D1*
Y69405D1*
X1430720Y67267D1*
X1428560Y65130D1*
X1441519D1*
Y86506D1*
G37*
G36*
X1458798Y77955D2*
X1456638Y75818D1*
X1454478Y69405D1*
Y65130D1*
X1456638D1*
Y67267D1*
X1460238Y69405D1*
X1463838D1*
X1467438Y67267D1*
X1469598Y65130D1*
X1471757D1*
Y67267D1*
X1467438Y80093D1*
X1465278Y84368D1*
X1463118Y86506D1*
X1458798Y82231D1*
Y77955D1*
X1460958D1*
X1462571Y79328D1*
X1463690Y79203D1*
X1465278Y77955D1*
Y73680D1*
X1462644Y71449D1*
X1460581Y71622D1*
X1458119Y74379D1*
X1460958Y75818D1*
Y77955D1*
X1458798D1*
G37*
G36*
X1499836Y80093D2*
Y75818D1*
X1504156Y71543D1*
X1499836Y67267D1*
Y65130D1*
X1501996D1*
X1504156Y67267D1*
Y69405D1*
X1508476Y73680D1*
X1510487Y72970D1*
X1512795Y71543D1*
Y65130D1*
X1514955D1*
Y84368D1*
X1512795Y86506D1*
X1506316D1*
X1501996Y84368D1*
X1499836Y82231D1*
Y80093D1*
X1501996D1*
X1505596Y82231D1*
X1509195D1*
X1512795Y80093D1*
Y77955D1*
X1509195Y75818D1*
X1505596D1*
X1501996Y77955D1*
Y80093D1*
X1499836D1*
G37*
G36*
X1530074Y86506D2*
X1527914Y84368D1*
Y82231D1*
X1538714Y80093D1*
Y77955D1*
X1527914Y75818D1*
Y73680D1*
X1538714Y71543D1*
Y69405D1*
X1527914Y67267D1*
Y65130D1*
X1540874D1*
Y84368D1*
X1538714Y86506D1*
X1530074D1*
G37*
G36*
X1553833D2*
Y84368D1*
X1555993Y80093D1*
X1560313Y75818D1*
Y73680D1*
X1555993Y69405D1*
X1553833Y65130D1*
Y62992D1*
X1560313Y69405D1*
X1561926Y70778D1*
X1563045Y70653D1*
X1564633Y69405D1*
Y65130D1*
X1566792Y62992D1*
Y86506D1*
X1564633Y84368D1*
Y80093D1*
X1562342Y77771D1*
X1561224Y78119D1*
X1560313Y80093D1*
X1553833Y86506D1*
G37*
G36*
X1584072Y77955D2*
X1581912Y75818D1*
X1579752Y69405D1*
Y65130D1*
X1581912D1*
Y67267D1*
X1585512Y69405D1*
X1589111D1*
X1592711Y67267D1*
X1594871Y65130D1*
X1597031D1*
Y67267D1*
X1592711Y80093D1*
X1590551Y84368D1*
X1588391Y86506D1*
X1586231Y84368D1*
X1584072Y80093D1*
Y77955D1*
X1586231D1*
X1587844Y79328D1*
X1588964Y79203D1*
X1590551Y77955D1*
Y73680D1*
X1587918Y71449D1*
X1585854Y71622D1*
X1583392Y74379D1*
X1586231Y75818D1*
Y77955D1*
X1584072D1*
G37*
G36*
X1609990Y86506D2*
X1607830Y84368D1*
Y80093D1*
X1609990Y65130D1*
X1612150D1*
Y73680D1*
X1613763Y75053D1*
X1614856Y74874D1*
X1616085Y73106D1*
X1616470Y71543D1*
X1618630Y69405D1*
X1620790Y71543D1*
X1621142Y73196D1*
X1622467Y74948D1*
X1623532Y74898D1*
X1625109Y73680D1*
Y65130D1*
X1627269D1*
Y86506D1*
X1625109D1*
X1622949Y84368D1*
X1620790Y80093D1*
X1620241Y77571D1*
X1618504Y75621D1*
X1617385Y75981D1*
X1616470Y77955D1*
X1614310Y82231D1*
X1609990Y86506D1*
G37*
G36*
X1657508D2*
Y65130D1*
X1659668D1*
X1663987Y69405D1*
X1666147Y73680D1*
X1666500Y75333D1*
X1667825Y77086D1*
X1668889Y77035D1*
X1670467Y75818D1*
Y65130D1*
X1672627D1*
Y84368D1*
X1670467Y86506D1*
X1666147Y82231D1*
X1663987Y77955D1*
X1663439Y75433D1*
X1661701Y73483D1*
X1660583Y73843D1*
X1659668Y75818D1*
Y84368D1*
X1657508Y86506D1*
G37*
G36*
X1715825D2*
X1713665Y84368D1*
Y65130D1*
X1715825D1*
Y86506D1*
G37*
G36*
X1735264D2*
X1730944Y84368D1*
X1728784Y82231D1*
X1730944Y80093D1*
X1734544Y82231D1*
X1738143D1*
X1741743Y80093D1*
Y69405D1*
X1738143Y67267D1*
X1734544D1*
X1730944Y69405D1*
X1728784Y67267D1*
X1730944Y65130D1*
X1735264Y62992D1*
X1737423D1*
X1741743Y65130D1*
X1743903Y67267D1*
Y82231D1*
X1741743Y84368D1*
X1737423Y86506D1*
X1735264D1*
G37*
G36*
X1759022Y75818D2*
X1758312Y73224D1*
X1756862Y71543D1*
X1754703Y65130D1*
X1759022D1*
Y67267D1*
X1762622Y69405D1*
X1766222D1*
X1769822Y67267D1*
Y65130D1*
X1774142D1*
X1769822Y77955D1*
X1765502Y86506D1*
X1763342D1*
X1761182Y84368D1*
X1759022Y77955D1*
Y75818D1*
X1761182D1*
X1763494Y77094D1*
X1765331Y76854D1*
X1767090Y74907D1*
X1766880Y73131D1*
X1764594Y71374D1*
X1762615Y71709D1*
X1760464Y74206D1*
X1761182Y75818D1*
X1759022D1*
G37*
G36*
X1804380Y86506D2*
X1800060Y82231D1*
Y80093D1*
X1802220D1*
X1805820Y82231D1*
X1809420D1*
X1813019Y80093D1*
Y69405D1*
X1809420Y67267D1*
X1805820D1*
X1802220Y69405D1*
X1800060D1*
Y67267D1*
X1802220Y65130D1*
X1806540Y62992D1*
X1808700D1*
X1813019Y65130D1*
X1815179Y67267D1*
Y82231D1*
X1813019Y84368D1*
X1808700Y86506D1*
X1804380D1*
G37*
G36*
X1828139Y80093D2*
Y67267D1*
X1832458Y62992D1*
X1838938D1*
X1843258Y67267D1*
Y82231D1*
X1838938Y86506D1*
X1832458D1*
X1828139Y82231D1*
Y80093D1*
X1830299D1*
X1833898Y82231D1*
X1837498D1*
X1841098Y80093D1*
Y69405D1*
X1837498Y67267D1*
X1833898D1*
X1830299Y69405D1*
Y80093D1*
X1828139D1*
G37*
G36*
X1862697Y86506D2*
X1858377Y84368D1*
X1856217Y82231D1*
X1858377Y80093D1*
X1861977Y82231D1*
X1865577D1*
X1869177Y80093D1*
Y77955D1*
X1860537Y75818D1*
X1856217Y73680D1*
Y67267D1*
X1858377Y65130D1*
X1862697Y62992D1*
X1867017D1*
X1871336Y65130D1*
Y69405D1*
X1869177D1*
X1865577Y67267D1*
X1861977D1*
X1858377Y69405D1*
Y71543D1*
X1867017Y73680D1*
X1871336Y75818D1*
Y82231D1*
X1869177Y84368D1*
X1864857Y86506D1*
X1862697D1*
G37*
G36*
X1888615Y77955D2*
X1886456Y75818D1*
X1884296Y69405D1*
Y65130D1*
X1886456D1*
Y67267D1*
X1890055Y69405D1*
X1893655D1*
X1897255Y67267D1*
X1899415Y65130D1*
X1901575D1*
Y67267D1*
X1899415Y73680D1*
X1897255Y77955D1*
X1895095Y84368D1*
X1892935Y86506D1*
X1888615Y82231D1*
Y77955D1*
X1890775D1*
X1892388Y79328D1*
X1893508Y79203D1*
X1895095Y77955D1*
Y73680D1*
X1892462Y71449D1*
X1890398Y71622D1*
X1887936Y74379D1*
X1890775Y75818D1*
Y77955D1*
X1888615D1*
G37*
G36*
X1784941Y84368D2*
Y65130D1*
X1787101D1*
Y84368D1*
X1784941D1*
G37*
G36*
X1012449Y531496D2*
X1003151Y530463D1*
X992820Y528397D1*
X984555Y526331D1*
X972158Y522198D1*
X966993Y520132D1*
X952529Y512900D1*
X947364Y509801D1*
X944264Y507735D1*
Y505669D1*
X947364Y501536D1*
X951496Y495338D1*
X952529Y494304D1*
X953562D1*
X955628Y495338D1*
X960794Y498437D1*
X961827Y499470D1*
X970092Y503602D1*
X973191Y504635D1*
X978357Y506702D1*
X980423Y507735D1*
X986621Y509801D1*
X999019Y512900D1*
X1005217Y513933D1*
X1013482Y514966D1*
X1021403Y516000D1*
X1029323D1*
X1037243Y514966D1*
X1044475Y513933D1*
X1050674Y512900D1*
X1055839Y511867D1*
X1059972Y510834D1*
X1072369Y506702D1*
X1074435Y505669D1*
X1077534Y504635D1*
X1091998Y497404D1*
X1093031Y496371D1*
X1095097Y495338D1*
X1096130D1*
X1099229Y499470D1*
X1103362Y505669D1*
X1104395Y507735D1*
Y508768D1*
X1101296Y510834D1*
X1094064Y514966D1*
X1087865Y518066D1*
X1080634Y521165D1*
X1075468Y523231D1*
X1066170Y526331D1*
X1057905Y528397D1*
X1047574Y530463D1*
X1038276Y531496D1*
X1012449D1*
G37*
G36*
X1013482Y499470D2*
X1005217Y498437D1*
X992820Y495338D1*
X983522Y492238D1*
X978357Y490172D1*
X970092Y486040D1*
X964926Y482940D1*
X962860Y480874D1*
Y479841D1*
X963893Y477775D1*
X966993Y473642D1*
X968026Y471576D1*
X969059Y470543D1*
X970092D1*
X977324Y474675D1*
X987655Y479841D1*
X996952Y482940D1*
X1001085Y483973D1*
X1006250Y485006D1*
X1012449Y486040D1*
X1021058Y487073D1*
X1029667D1*
X1038276Y486040D1*
X1044475Y485006D1*
X1056872Y481907D1*
X1059972Y480874D1*
X1062038Y479841D1*
X1065137Y478808D1*
X1077534Y472609D1*
X1078567Y471576D1*
X1079600D1*
X1082700Y475709D1*
X1084766Y478808D1*
X1085799Y480874D1*
Y481907D1*
X1083733Y483973D1*
X1069269Y491205D1*
X1064104Y493271D1*
X1057905Y495338D1*
X1049641Y497404D1*
X1044475Y498437D1*
X1037243Y499470D1*
X1013482D1*
G37*
G36*
X837855Y443682D2*
X837515Y442429D1*
X836822Y441616D1*
X835789Y437484D1*
X834756Y428186D1*
Y424053D1*
X835789Y416822D1*
X837855Y410623D1*
X839921Y406491D1*
X841987Y403391D1*
X850252Y395127D1*
X861616Y387895D1*
X861277Y386642D1*
X860583Y385829D1*
X858517Y382729D1*
X856451Y378597D1*
X854385Y375498D1*
X852318Y371365D1*
X850252Y368266D1*
X848186Y364134D1*
X846120Y361034D1*
X844054Y356902D1*
X841987Y353803D1*
X839921Y349670D1*
X837855Y346571D1*
X835789Y342438D1*
X833723Y339339D1*
X832690Y337273D1*
Y335207D1*
X868848D1*
X870914Y337273D1*
X871947Y339339D1*
X874014Y342438D1*
X878146Y350703D1*
X880212Y353803D1*
X885378Y364134D1*
X887444Y367233D1*
X890543Y373432D1*
X892609Y376531D1*
X894676Y380663D1*
X894876Y381396D1*
X895709Y382729D1*
X902940Y383763D1*
X910172D1*
X917404Y382729D1*
Y336240D1*
X918437Y335207D1*
X950463D1*
X951496Y336240D1*
Y469510D1*
X950463Y470543D1*
X882278D1*
X870914Y469510D1*
X865749Y468477D1*
X861616Y467444D1*
X858517Y466411D1*
X852318Y463311D1*
X848186Y460212D1*
X844054Y456080D1*
X840954Y451947D1*
X837855Y445749D1*
Y443682D1*
X879179D1*
X891921Y444716D1*
X904662D1*
X917404Y443682D1*
Y409590D1*
X906040Y408557D1*
X894676D1*
X883311Y409590D1*
X878146Y410623D1*
X874014Y412689D1*
X871947Y414756D1*
Y415789D1*
X869881Y420954D1*
X868848Y421987D1*
Y432318D1*
X869881Y433351D1*
X870914Y436451D1*
X872980Y439550D1*
X876080Y442649D1*
X879179Y443682D1*
X837855D1*
G37*
G36*
X1141586Y470543D2*
X1140553Y469510D1*
Y365167D1*
X1088898Y364134D1*
X1087865Y363101D1*
Y337273D1*
X1088898Y335207D1*
X1173613D1*
X1174646Y336240D1*
Y469510D1*
X1173613Y470543D1*
X1141586D1*
G37*
G36*
X1017614Y468477D2*
X1010383Y467444D1*
X1005217Y466411D1*
X992820Y462278D1*
X982489Y457113D1*
X980423Y455047D1*
Y454013D1*
X983522Y449881D1*
X985588Y447815D1*
X986621D1*
X987655Y448848D1*
X997986Y454013D1*
X1001085Y455047D1*
X1009350Y457113D1*
X1014515Y458146D1*
X1021747Y459179D1*
X1028979D1*
X1036210Y458146D1*
X1041376Y457113D1*
X1045508Y456080D1*
X1054806Y452980D1*
X1063071Y448848D1*
X1065137Y450914D1*
X1068236Y455047D1*
Y456080D1*
X1066170Y458146D1*
X1059972Y461245D1*
X1054806Y463311D1*
X1048607Y465378D1*
X1040343Y467444D1*
X1032078Y468477D1*
X1017614D1*
G37*
G36*
X731446Y382729D2*
Y350703D1*
X730413Y349670D1*
X729380Y340372D1*
X728346Y336240D1*
X729380Y335207D1*
X755207D1*
X756240Y336240D1*
X757273Y341405D1*
Y344505D1*
X758045Y345168D1*
X758567Y345082D1*
X759155Y344227D1*
X759339Y343472D1*
X761406Y341405D1*
X764505Y339339D1*
X770704Y336240D1*
X776902Y334174D1*
X781035Y333141D1*
X795498D1*
X800663Y334174D1*
X805829Y336240D1*
X807895Y337273D1*
X810994Y339339D1*
X816160Y344505D1*
X818226Y347604D1*
X820292Y351736D1*
X821325Y355869D1*
Y370332D1*
X820292Y374465D1*
X817193Y380663D1*
X809961Y387895D1*
X806862Y389961D1*
X800663Y393060D1*
X791366Y396160D1*
X783101Y398226D1*
X777935Y399259D1*
X770704Y400292D1*
X764505Y401325D1*
X759339Y402358D1*
Y412689D1*
X760373Y413722D1*
X761406Y415789D1*
Y416822D1*
X765538Y418888D1*
X769670Y419921D1*
X772081Y420954D1*
X774492D1*
X776902Y419921D1*
X781035Y418888D1*
X785167Y416822D1*
Y415789D1*
X787233Y412689D1*
X788266Y408557D1*
X789299Y407524D1*
X817193D1*
Y411656D1*
X816160Y416822D1*
X815127Y419921D1*
X813061Y424053D1*
X808928Y429219D1*
X807895Y430252D1*
X804796Y432318D1*
X798597Y435418D1*
X792399Y437484D1*
X787233Y438517D1*
X762439D1*
X755207Y437484D1*
X747975Y435418D1*
X741777Y432318D1*
X734545Y425087D1*
X732479Y420954D1*
X731446Y416822D1*
Y382729D1*
X759339D1*
X761061Y383763D1*
X762783D1*
X764505Y382729D1*
X767604Y381696D1*
X774836Y379630D1*
X778968Y378597D1*
X785167Y376531D1*
X787233Y375498D1*
X790332Y372398D1*
X791342Y371315D1*
X792194Y370024D1*
X792399Y369299D1*
X793432Y368266D1*
Y363101D1*
X792399Y362067D1*
Y360001D1*
X790332Y357935D1*
X786200Y355869D1*
X781723Y354836D1*
X777246D1*
X772770Y355869D1*
X766571Y358968D1*
X763472Y362067D1*
Y363101D1*
X761406Y366200D1*
X760373Y371365D1*
X759339Y382729D1*
X731446D1*
G37*
G36*
X977324Y414756D2*
X976984Y413502D1*
X976290Y412689D1*
X974224Y408557D1*
X973191Y405458D1*
X972158Y401325D1*
X971125Y396160D1*
Y375498D1*
X972158Y370332D1*
X973191Y366200D1*
X974224Y364134D1*
X975257Y361034D1*
X977324Y356902D1*
X979390Y353803D1*
X982489Y349670D1*
X987655Y344505D1*
X991787Y341405D1*
X1002118Y336240D1*
X1005217Y335207D1*
X1009350Y334174D1*
X1015548Y333141D1*
X1033111D1*
X1039310Y334174D1*
X1043442Y335207D1*
X1046541Y336240D1*
X1054806Y340372D1*
X1057905Y342438D1*
X1062038Y345538D1*
X1066170Y349670D1*
X1069269Y353803D1*
X1071336Y356902D1*
X1073402Y361034D1*
X1074435Y364134D1*
X1075468Y366200D1*
X1076501Y370332D1*
X1077534Y376531D1*
Y395127D1*
X1076501Y401325D1*
X1075468Y405458D1*
X1074435Y407524D1*
X1073402Y410623D1*
X1071336Y414756D1*
X1067203Y420954D1*
X1061005Y427153D1*
X1056872Y430252D1*
X1051707Y433351D1*
X1046541Y435418D1*
X1043442Y436451D1*
X1039310Y437484D1*
X1034144Y438517D1*
X1014515D1*
X1008317Y437484D1*
X1002118Y435418D1*
X996952Y433351D1*
X991787Y430252D1*
X987655Y427153D1*
X981456Y420954D1*
X977324Y414756D1*
X1016581D1*
X1021747Y415789D1*
X1026912D1*
X1032078Y414756D1*
X1035177Y413722D1*
X1037243Y412689D1*
X1043442Y406491D1*
Y405458D1*
X1045508Y401325D1*
X1046541Y398226D1*
X1047574Y390994D1*
X1048607Y389961D1*
Y381696D1*
X1047574Y380663D1*
X1046541Y373432D1*
X1045508Y370332D1*
X1043442Y366200D1*
Y365167D1*
X1037243Y358968D1*
X1035177Y357935D1*
X1032078Y356902D1*
X1026912Y355869D1*
X1021747D1*
X1016581Y356902D1*
X1013482Y357935D1*
X1011416Y358968D1*
X1010383Y360001D1*
X1008317Y361034D1*
X1006250Y363101D1*
Y364134D1*
X1004184Y367233D1*
X1002118Y373432D1*
X1001085Y379630D1*
X1000052Y380663D1*
Y392027D1*
X1001085Y393060D1*
X1002118Y398226D1*
X1003151Y402358D1*
X1004184Y404425D1*
X1007283Y408557D1*
X1007484Y409289D1*
X1008317Y410623D1*
X1010383Y411656D1*
X1011416Y412689D1*
X1013482Y413722D1*
X1016581Y414756D1*
X977324D1*
G37*
G36*
X1063071Y323843D2*
X1050674Y317644D1*
X1044475Y315578D1*
X1040343Y314545D1*
X1035177Y313512D1*
X1027257Y312479D1*
X1019336D1*
X1011416Y313512D1*
X1006250Y314545D1*
X1002118Y315578D1*
X995919Y317644D1*
X985588Y322810D1*
X983522Y320743D1*
X980423Y316611D1*
Y314545D1*
X992820Y308346D1*
X999019Y306280D1*
X1007283Y304214D1*
X1013482Y303181D1*
X1033111D1*
X1039310Y304214D1*
X1047574Y306280D1*
X1053773Y308346D1*
X1066170Y314545D1*
X1068236Y316611D1*
X1064104Y322810D1*
X1063071Y323843D1*
G37*
G36*
X1078567Y301114D2*
X1077534Y300081D1*
X1075468Y299048D1*
X1074435Y298015D1*
X1066170Y293883D1*
X1063071Y292850D1*
X1057905Y290783D1*
X1055839Y289750D1*
X1043442Y286651D1*
X1037243Y285618D1*
X1027945Y284585D1*
X1018648D1*
X1009350Y285618D1*
X1003151Y286651D1*
X990754Y289750D1*
X988688Y290783D1*
X983522Y292850D1*
X980423Y293883D1*
X974224Y296982D1*
X973191Y298015D1*
X971125Y299048D1*
X969059D1*
X966993Y296982D1*
X963893Y292850D1*
X962860Y290783D1*
Y288717D1*
X968026Y285618D1*
X976290Y281485D1*
X981456Y279419D1*
X993853Y275287D1*
X997986Y274254D1*
X1003151Y273221D1*
X1010383Y272188D1*
X1036210D1*
X1043442Y273221D1*
X1048607Y274254D1*
X1052740Y275287D1*
X1059972Y277353D1*
X1063071Y278386D1*
X1070303Y281485D1*
X1080634Y286651D1*
X1083733Y288717D1*
X1085799Y290783D1*
Y291816D1*
X1081667Y298015D1*
X1078567Y301114D1*
G37*
G36*
X1095097Y277353D2*
X1093031Y276320D1*
X1089931Y274254D1*
X1088898Y273221D1*
X1076501Y267022D1*
X1073402Y265989D1*
X1071336Y264956D1*
X1058938Y260823D1*
X1054806Y259790D1*
X1044475Y257724D1*
X1037243Y256691D1*
X1027945Y255658D1*
X1018648D1*
X1009350Y256691D1*
X1002118Y257724D1*
X991787Y259790D1*
X987655Y260823D1*
X975257Y264956D1*
X971125Y267022D1*
X968026Y268055D1*
X959761Y272188D1*
X958728Y273221D1*
X953562Y276320D1*
X952529D1*
X950463Y273221D1*
X947364Y269088D1*
X945297Y265989D1*
X944264Y263923D1*
Y262890D1*
X945297Y261857D1*
X950463Y258757D1*
X964926Y251526D1*
X970092Y249459D1*
X978357Y246360D1*
X985588Y244294D1*
X994886Y242228D1*
X1000052Y241195D1*
X1008317Y240161D1*
X1038276D1*
X1046541Y241195D1*
X1051707Y242228D1*
X1061005Y244294D1*
X1068236Y246360D1*
X1079600Y250492D1*
X1096130Y258757D1*
X1101296Y261857D1*
X1104395Y263923D1*
Y264956D1*
X1103362Y267022D1*
X1099229Y273221D1*
X1096130Y277353D1*
X1095097D1*
G37*
X101697Y124870D2*
D65*
X41409Y147818D1*
X101697Y170766D1*
Y189293D2*
X41409D1*
X72979D2*
X78749Y195063D1*
X81601Y200767D1*
Y209389D1*
X78749Y215093D1*
X72979Y220863D1*
X64357Y223715D1*
X58653D1*
X50031Y220863D1*
X44327Y215093D1*
X41409Y209389D1*
Y200767D1*
X44327Y195063D1*
X50031Y189293D1*
X181859Y168597D2*
X187563Y165745D1*
X193333Y159975D1*
X196185Y154271D1*
Y142797D1*
X193333Y137027D1*
X187563Y131323D1*
X181859Y128405D1*
X173237Y125553D1*
X158845D1*
X150289Y128405D1*
X144519Y131323D1*
X138815Y137027D1*
X135897Y142797D1*
Y154271D1*
X138815Y159975D1*
X144519Y165745D1*
X150289Y168597D1*
X158845D1*
Y154271D1*
X485009Y168597D2*
X490713Y165745D1*
X496483Y159975D1*
X499335Y154271D1*
Y142797D1*
X496483Y137027D1*
X490713Y131323D1*
X485009Y128405D1*
X476387Y125553D1*
X461995D1*
X453439Y128405D1*
X447669Y131323D1*
X441965Y137027D1*
X439047Y142797D1*
Y154271D1*
X441965Y159975D1*
X447669Y165745D1*
X453439Y168597D1*
X461995D1*
Y154271D1*
X788158Y168597D2*
X793862Y165745D1*
X799632Y159975D1*
X802484Y154271D1*
Y142797D1*
X799632Y137027D1*
X793862Y131323D1*
X788158Y128405D1*
X779536Y125553D1*
X765144D1*
X756588Y128405D1*
X750818Y131323D1*
X745114Y137027D1*
X742196Y142797D1*
Y154271D1*
X745114Y159975D1*
X750818Y165745D1*
X756588Y168597D1*
X765144D1*
Y154271D1*
X1079497Y172534D2*
X1085201Y169682D1*
X1090971Y163912D1*
X1093823Y158208D1*
Y146734D1*
X1090971Y140964D1*
X1085201Y135260D1*
X1079497Y132342D1*
X1070875Y129490D1*
X1056483D1*
X1047927Y132342D1*
X1042157Y135260D1*
X1036453Y140964D1*
X1033535Y146734D1*
Y158208D1*
X1036453Y163912D1*
X1042157Y169682D1*
X1047927Y172534D1*
X1056483D1*
Y158208D1*
X185796Y617415D2*
X191500Y614564D1*
X197270Y608793D1*
X200122Y603090D1*
Y591616D1*
X197270Y585846D1*
X191500Y580142D1*
X185796Y577223D1*
X177174Y574372D1*
X162782D1*
X154226Y577223D1*
X148456Y580142D1*
X142752Y585846D1*
X139834Y591616D1*
Y603090D1*
X142752Y608793D1*
X148456Y614564D1*
X154226Y617415D1*
X162782D1*
Y603090D1*
X492883Y613478D2*
X498587Y610627D1*
X504357Y604856D1*
X507209Y599153D1*
Y587679D1*
X504357Y581909D1*
X498587Y576205D1*
X492883Y573286D1*
X484261Y570435D1*
X469869D1*
X461313Y573286D1*
X455543Y576205D1*
X449839Y581909D1*
X446921Y587679D1*
Y599153D1*
X449839Y604856D1*
X455543Y610627D1*
X461313Y613478D1*
X469869D1*
Y599153D1*
X788158Y613478D2*
X793862Y610627D1*
X799632Y604856D1*
X802484Y599153D1*
Y587679D1*
X799632Y581909D1*
X793862Y576205D1*
X788158Y573286D1*
X779536Y570435D1*
X765144D1*
X756588Y573286D1*
X750818Y576205D1*
X745114Y581909D1*
X742196Y587679D1*
Y599153D1*
X745114Y604856D1*
X750818Y610627D1*
X756588Y613478D1*
X765144D1*
Y599153D1*
X1087371Y609541D2*
X1093075Y606690D1*
X1098845Y600919D1*
X1101697Y595216D1*
Y583742D1*
X1098845Y577971D1*
X1093075Y572268D1*
X1087371Y569349D1*
X1078749Y566498D1*
X1064357D1*
X1055801Y569349D1*
X1050031Y572268D1*
X1044327Y577971D1*
X1041409Y583742D1*
Y595216D1*
X1044327Y600919D1*
X1050031Y606690D1*
X1055801Y609541D1*
X1064357D1*
Y595216D1*
X294610Y144900D2*
X234322D1*
X294610Y124804D2*
Y164996D1*
X280218Y186441D2*
X283070D1*
X288840Y189293D1*
X291692Y192145D1*
X294544Y197915D1*
Y209389D1*
X291692Y215093D1*
X288840Y217945D1*
X283070Y220863D1*
X277366D1*
X271596Y217945D1*
X263040Y212241D1*
X234322Y183523D1*
Y223715D1*
X372191Y124804D2*
Y150603D1*
X375110Y159225D1*
X377962Y162144D1*
X383665Y164996D1*
X389435D1*
X395139Y162144D1*
X398058Y159225D1*
X400909Y150603D1*
Y124804D1*
X340621D1*
X372191Y144900D2*
X340621Y164996D1*
X386517Y186441D2*
X389369D1*
X395139Y189293D1*
X397991Y192145D1*
X400843Y197915D1*
Y209389D1*
X397991Y215093D1*
X395139Y217945D1*
X389369Y220863D1*
X383665D1*
X377895Y217945D1*
X369339Y212241D1*
X340621Y183523D1*
Y223715D1*
X572979Y124804D2*
Y150603D1*
X575897Y159225D1*
X578749Y162144D1*
X584453Y164996D1*
X590223D1*
X595927Y162144D1*
X598845Y159225D1*
X601697Y150603D1*
Y124804D1*
X541409D1*
X572979Y144900D2*
X541409Y164996D1*
X593075Y223715D2*
X598845Y218011D1*
X601697Y209389D1*
Y197915D1*
X598845Y189293D1*
X593075Y183523D1*
X587371D1*
X581601Y186441D1*
X578749Y189293D1*
X575897Y194997D1*
X570127Y212241D1*
X567275Y218011D1*
X564357Y220863D1*
X558653Y223715D1*
X550031D1*
X544327Y218011D1*
X541409Y209389D1*
Y197915D1*
X544327Y189293D1*
X550031Y183523D1*
X704059Y124804D2*
X643771D1*
Y144900D1*
X646689Y153522D1*
X652393Y159292D1*
X658163Y162144D1*
X666719Y164996D1*
X681111D1*
X689733Y162144D1*
X695437Y159292D1*
X701207Y153522D1*
X704059Y144900D1*
Y124804D1*
X703993Y200767D2*
X701141Y192145D1*
X692519Y186375D1*
X678193Y183523D1*
X669571D1*
X655245Y186375D1*
X646623Y192145D1*
X643771Y200767D1*
Y206471D1*
X646623Y215093D1*
X655245Y220796D1*
X669571Y223715D1*
X678193D1*
X692519Y220796D1*
X701141Y215093D1*
X703993Y206471D1*
Y200767D1*
X692519Y220796D2*
X655245Y186375D1*
X900909Y123044D2*
X840621D1*
Y143140D1*
X843540Y151762D1*
X849243Y157533D1*
X855014Y160384D1*
X863569Y163236D1*
X877962D1*
X886584Y160384D1*
X892287Y157533D1*
X898058Y151762D1*
X900909Y143140D1*
Y123044D1*
X889369Y181763D2*
X892287Y187534D1*
X900843Y196156D1*
X840621D1*
X999335Y124804D2*
X939047D1*
Y144900D1*
X941965Y153522D1*
X947669Y159292D1*
X953439Y162144D1*
X961995Y164996D1*
X976387D1*
X985009Y162144D1*
X990713Y159292D1*
X996483Y153522D1*
X999335Y144900D1*
Y124804D1*
X984942Y186441D2*
X987794D1*
X993564Y189293D1*
X996416Y192145D1*
X999268Y197915D1*
Y209389D1*
X996416Y215093D1*
X993564Y217945D1*
X987794Y220863D1*
X982091D1*
X976320Y217945D1*
X967765Y212241D1*
X939047Y183523D1*
Y223715D1*
X1204059Y128741D2*
X1143771D1*
Y148837D1*
X1146689Y157459D1*
X1152393Y163229D1*
X1158163Y166081D1*
X1166719Y168933D1*
X1181111D1*
X1189733Y166081D1*
X1195437Y163229D1*
X1201207Y157459D1*
X1204059Y148837D1*
Y128741D1*
X1203993Y193230D2*
Y224733D1*
X1181045Y207556D1*
Y216178D1*
X1178193Y221882D1*
X1175341Y224733D1*
X1166719Y227652D1*
X1161015D1*
X1152393Y224733D1*
X1146623Y219030D1*
X1143771Y210408D1*
Y201786D1*
X1146623Y193230D1*
X1149541Y190378D1*
X1155245Y187460D1*
X105634Y521423D2*
X45346Y544371D1*
X105634Y567318D1*
X85538Y585846D2*
X56820D1*
X48264Y588697D1*
X45346Y594468D1*
Y603090D1*
X48264Y608793D1*
X56820Y617415D1*
X85538D2*
X45346D1*
X230385Y562633D2*
X290673Y539619D1*
X230385Y516671D1*
X250481Y525293D2*
Y554011D1*
X230385Y592634D2*
X290607Y621352D1*
Y581160D1*
X336684Y562633D2*
X396972Y539619D1*
X336684Y516671D1*
X356780Y525293D2*
Y554011D1*
X396906Y615582D2*
Y586931D1*
X371106Y584079D1*
X373958Y586931D1*
X376876Y595553D1*
Y604108D1*
X373958Y612730D1*
X368254Y618501D1*
X359632Y621352D1*
X353928D1*
X345306Y618501D1*
X339536Y612730D1*
X336684Y604108D1*
Y595553D1*
X339536Y586931D1*
X342455Y584079D1*
X348158Y581160D1*
X541409Y563718D2*
X601697Y540704D1*
X541409Y517756D1*
X561505Y526378D2*
Y555096D1*
X541409Y610964D2*
X601630D1*
X561505Y582246D1*
Y625289D1*
X643771Y566570D2*
X704059Y543556D1*
X643771Y520608D1*
X663867Y529230D2*
Y557948D1*
X703993Y590868D2*
Y622371D1*
X681045Y605193D1*
Y613816D1*
X678193Y619519D1*
X675341Y622371D1*
X666719Y625289D1*
X661015D1*
X652393Y622371D1*
X646623Y616667D1*
X643771Y608045D1*
Y599423D1*
X646623Y590868D1*
X649541Y588016D1*
X655245Y585097D1*
X832747Y562633D2*
X893035Y539619D1*
X832747Y516671D1*
X852843Y525293D2*
Y554011D1*
X878643Y584079D2*
X881495D1*
X887265Y586931D1*
X890117Y589783D1*
X892969Y595553D1*
Y607027D1*
X890117Y612730D1*
X887265Y615582D1*
X881495Y618501D1*
X875791D1*
X870021Y615582D1*
X861465Y609879D1*
X832747Y581160D1*
Y621352D1*
X935110Y580559D2*
X995398Y557545D1*
X935110Y534597D1*
X955206Y543219D2*
Y571937D1*
X983857Y599086D2*
X986776Y604856D1*
X995331Y613478D1*
X935110D1*
X1135897Y562633D2*
X1196185Y539619D1*
X1135897Y516671D1*
X1155993Y525293D2*
Y554011D1*
X1196119Y598405D2*
X1193267Y589783D1*
X1184645Y584012D1*
X1170319Y581160D1*
X1161697D1*
X1147371Y584012D1*
X1138749Y589783D1*
X1135897Y598405D1*
Y604108D1*
X1138749Y612730D1*
X1147371Y618434D1*
X1161697Y621352D1*
X1170319D1*
X1184645Y618434D1*
X1193267Y612730D1*
X1196119Y604108D1*
Y598405D1*
X1184645Y618434D2*
X1147371Y584012D1*
X1497223Y720283D2*
X1549434Y690139D1*
X1532223Y660329D1*
X1480990Y651973D2*
X1486311Y655487D1*
X1494193Y657599D1*
X1503086Y655758D1*
X1508026Y652906D1*
X1514067Y646125D1*
X1516121Y638276D1*
X1515797Y631877D1*
X1511486Y624410D1*
X1506073Y620872D1*
X1498282Y618785D1*
X1489356Y620569D1*
X1484416Y623420D1*
X1478408Y630259D1*
X1476263Y638083D1*
X1476679Y644506D1*
X1480990Y651973D1*
X1467686Y611687D2*
X1454786Y589343D1*
X1447948Y583335D1*
X1444019Y582234D1*
X1437653Y582616D1*
X1432656Y585501D1*
X1429142Y590823D1*
X1428074Y594809D1*
X1429915Y603702D1*
X1442815Y626046D1*
X1495026Y595902D1*
X1457638Y594283D2*
X1474930Y561094D1*
X1413648Y535335D2*
X1448456Y515239D1*
X1421115Y531024D2*
X1418970Y538849D1*
X1419385Y545272D1*
X1423663Y552681D1*
X1429018Y556252D1*
X1436867Y558307D1*
X1445793Y556523D1*
X1450733Y553671D1*
X1456741Y546833D1*
X1458828Y539042D1*
X1458471Y532585D1*
X1454193Y525176D1*
X1448780Y521638D1*
X1440989Y519550D1*
X1395673Y423816D2*
X1343519Y453927D1*
X1392628Y458735D1*
X1371106Y421457D1*
X1319930Y413069D2*
X1326677Y419052D1*
X1333076Y418728D1*
X1338073Y415843D1*
X1341554Y410463D1*
X1341229Y404065D1*
X1337962Y392702D1*
X1336121Y383809D1*
X1338266Y375984D1*
X1341780Y370663D1*
X1349246Y366352D1*
X1355612Y365970D1*
X1359565Y366980D1*
X1366346Y373021D1*
X1372083Y382958D1*
X1373891Y391793D1*
X1372823Y395780D1*
X1369309Y401101D1*
X1361842Y405412D1*
X1355477Y405795D1*
X1347595Y403683D1*
X1340847Y397699D1*
X1332640Y389188D1*
X1327228Y385650D1*
X1320862Y386032D1*
X1315865Y388917D1*
X1312351Y394239D1*
X1314193Y403132D1*
X1319930Y413069D1*
X1289144Y359747D2*
X1295925Y365788D1*
X1306277Y366474D1*
X1320109Y361781D1*
X1327576Y357470D1*
X1338557Y347837D1*
X1343139Y338529D1*
X1341298Y329636D1*
X1338446Y324696D1*
X1331665Y318655D1*
X1321346Y318027D1*
X1307480Y322662D1*
X1300013Y326973D1*
X1289066Y336664D1*
X1284451Y345914D1*
X1286292Y354807D1*
X1289144Y359747D1*
X1289066Y336664D2*
X1338557Y347837D1*
X1261244Y311422D2*
X1267991Y317405D1*
X1274390Y317081D1*
X1279387Y314196D1*
X1282868Y308816D1*
X1282543Y302418D1*
X1279276Y291055D1*
X1277435Y282162D1*
X1279580Y274337D1*
X1283094Y269016D1*
X1290561Y264705D1*
X1296926Y264323D1*
X1300879Y265333D1*
X1307660Y271374D1*
X1313397Y281311D1*
X1315205Y290146D1*
X1314137Y294133D1*
X1310623Y299454D1*
X1303156Y303765D1*
X1296791Y304148D1*
X1288909Y302036D1*
X1282161Y296052D1*
X1273954Y287541D1*
X1268542Y284003D1*
X1262176Y284385D1*
X1257179Y287270D1*
X1253666Y292592D1*
X1255507Y301485D1*
X1261244Y311422D1*
X2086637Y599182D2*
X2089489Y604886D1*
X2095259Y610656D1*
X2100963Y613508D1*
X2112437D1*
X2118207Y610656D1*
X2123911Y604886D1*
X2126829Y599182D1*
X2129681Y590560D1*
Y576168D1*
X2126829Y567612D1*
X2123911Y561842D1*
X2118207Y556138D1*
X2112437Y553220D1*
X2100963D1*
X2095259Y556138D1*
X2089489Y561842D1*
X2086637Y567612D1*
Y576168D1*
X2100963D1*
X2027918Y613508D2*
Y553220D1*
X2068110Y613508D1*
Y553220D1*
X2009391Y613508D2*
Y553220D1*
X1989295D1*
X1980673Y556138D1*
X1974903Y561842D1*
X1972051Y567612D1*
X1969199Y576168D1*
Y590560D1*
X1972051Y599182D1*
X1974903Y604886D1*
X1980673Y610656D1*
X1989295Y613508D1*
X2009391D1*
X1903176Y351508D2*
X1850965Y321364D1*
X1913224Y334104D2*
X1893128Y368912D1*
X1849250Y404719D2*
X1814443Y384623D1*
X1841783Y400408D2*
X1849632Y398353D1*
X1854987Y394782D1*
X1859265Y387373D1*
X1859680Y380950D1*
X1857535Y373125D1*
X1851527Y366287D1*
X1846588Y363435D1*
X1837662Y361651D1*
X1829870Y363739D1*
X1824458Y367277D1*
X1820180Y374686D1*
X1819822Y381142D1*
X1821910Y388934D1*
X1857390Y430812D2*
X1805179Y400668D1*
X1848127Y446857D2*
X1795916Y416713D1*
X1806526Y444232D2*
X1789315Y474042D1*
X1794312Y476927D1*
X1800735Y477342D1*
X1804631Y476298D1*
X1809986Y472727D1*
X1814297Y465260D1*
X1814679Y458895D1*
X1812567Y451013D1*
X1806526Y444232D1*
X1801586Y441380D1*
X1792693Y439539D1*
X1784869Y441684D1*
X1779489Y445164D1*
X1775178Y452631D1*
X1774821Y459087D1*
X1776908Y466879D1*
X1794985Y498709D2*
X1760178Y478613D1*
X1780051Y490087D2*
X1786059Y496925D1*
X1788204Y504750D1*
X1787789Y511173D1*
X1783478Y518640D1*
X1762457Y595240D2*
X1710247Y565096D1*
X1728627Y613644D2*
X1729009Y607278D1*
X1726897Y599396D1*
X1720856Y592615D1*
X1715917Y589763D1*
X1707024Y587922D1*
X1699199Y590067D1*
X1693820Y593548D1*
X1689509Y601015D1*
X1689151Y607471D1*
X1691239Y615262D1*
X1697247Y622101D1*
X1702186Y624953D1*
X1711112Y626736D1*
X1718961Y624682D1*
X1724316Y621111D1*
X1728627Y613644D1*
X1715212Y677071D2*
X1663001Y646927D1*
X1725260Y659668D2*
X1705164Y694475D1*
X587665Y490915D2*
D66*
Y455045D1*
X585289Y447860D1*
X580480Y443107D1*
X573295Y440675D1*
X568542D1*
X561357Y443107D1*
X556549Y447860D1*
X554172Y455045D1*
Y490915D1*
X538733Y464607D2*
X517178D1*
X510048Y466984D1*
X507616Y469415D1*
X505240Y474169D1*
Y481354D1*
X507616Y486107D1*
X510048Y488539D1*
X517178Y490915D1*
X538733D1*
Y440675D1*
X489800Y490915D2*
Y440675D1*
X473054D1*
X465869Y443107D1*
X461060Y447860D1*
X458684Y452669D1*
X456307Y459799D1*
Y471792D1*
X458684Y478977D1*
X461060Y483730D1*
X465869Y488539D1*
X473054Y490915D1*
X489800D1*
X440868D2*
Y440675D1*
X2076344Y514623D2*
D65*
X2084966Y511771D1*
X2090736Y503149D1*
X2093588Y488823D1*
Y480201D1*
X2090736Y465875D1*
X2084966Y457253D1*
X2076344Y454401D1*
X2070640D1*
X2062018Y457253D1*
X2056314Y465875D1*
X2053396Y480201D1*
Y488823D1*
X2056314Y503149D1*
X2062018Y511771D1*
X2070640Y514623D1*
X2076344D1*
X2056314Y503149D2*
X2090736Y465875D1*
X2032017Y460171D2*
X2034869Y457253D1*
X2032017Y454401D1*
X2029099Y457253D1*
X2032017Y460171D1*
X2007654Y500297D2*
Y503149D1*
X2004802Y508919D1*
X2001950Y511771D1*
X1996180Y514623D1*
X1984706D1*
X1979002Y511771D1*
X1976150Y508919D1*
X1973232Y503149D1*
Y497445D1*
X1976150Y491675D1*
X1981854Y483119D1*
X2010572Y454401D1*
X1970380D1*
X581395Y335206D2*
D64*
X581391Y295014D1*
X567994Y295015D1*
X562246Y296961D1*
X558399Y300764D1*
X556498Y304611D1*
X554598Y310315D1*
X554599Y319910D1*
X556500Y325658D1*
X558402Y329460D1*
X562249Y333307D1*
X567997Y335207D1*
X581395Y335206D1*
X542248Y327516D2*
X538401Y329462D1*
X532654Y335166D1*
X532650Y295019D1*
X2050380Y142654D2*
D67*
Y157013D1*
X2051805Y161291D1*
X2054691Y162751D1*
X2059002D1*
X2061853Y161292D1*
X2066165Y157014D1*
Y142655D2*
X2066164Y162751D1*
X2095859Y132607D2*
X2077189D1*
X2077188Y162751D1*
Y146966D2*
X2088662D1*
X2106882Y132608D2*
Y162752D1*
X2124093D1*
X2104615Y344622D2*
D64*
X2104616Y314024D1*
X2106518Y308276D1*
X2108463Y306375D1*
X2112266Y304430D1*
X2116112D1*
X2119915Y306375D1*
X2121816Y308277D1*
X2123761Y314025D1*
Y317827D1*
X2092264Y336928D2*
X2088417Y338873D1*
X2082669Y344577D1*
X2082670Y304429D1*
X66219Y339825D2*
X66221Y309227D1*
X68122Y303479D1*
X70068Y301578D1*
X73870Y299633D1*
X77717D1*
X81520Y301579D1*
X83421Y303480D1*
X85366Y309228D1*
Y313031D1*
X34724Y299631D2*
X34722Y339779D1*
X53869Y313029D1*
X25173Y313028D1*
X817395Y253748D2*
X800196Y253749D1*
X794448Y255695D1*
X792502Y257596D1*
X790601Y261399D1*
Y265246D1*
X792503Y269048D1*
X794448Y270993D1*
X800196Y272894D1*
X817396D1*
X817394Y232702D1*
X803998Y253749D2*
X790600Y232703D1*
X755302Y272852D2*
X774403D1*
X776304Y255652D1*
X774403Y257553D1*
X768655Y259499D1*
X762951D1*
X757203Y257554D1*
X753356Y253751D1*
X751454Y248003D1*
Y244201D1*
X753355Y238453D1*
X757202Y234606D1*
X762950Y232704D1*
X768653D1*
X774402Y234605D1*
X776303Y236550D1*
X778249Y240353D1*
M02*
