G04 DipTrace 4.3.0.1*
G04 LoRa_4808.gto*
%MOIN*%
G04 #@! TF.FileFunction,Legend,Top*
G04 #@! TF.Part,Single*
%ADD10C,0.009843*%
%ADD13C,0.004724*%
%ADD16C,0.01*%
%ADD24C,0.005906*%
%ADD26C,0.005*%
%ADD33C,0.006*%
%ADD64C,0.006176*%
%FSLAX26Y26*%
G04*
G70*
G90*
G75*
G01*
G04 TopSilk*
%LPD*%
X554725Y362991D2*
D24*
X547639D1*
X554723Y400786D2*
X547637D1*
X1937795Y441339D2*
Y448425D1*
X1975591Y441339D2*
Y448425D1*
X519291Y225197D2*
X512204D1*
X519292Y262992D2*
X512205D1*
X133465Y563780D2*
X126378Y563779D1*
X133464Y601575D2*
X126377D1*
X243307Y298819D2*
Y291732D1*
X205512Y298819D2*
Y291732D1*
X562206Y483859D2*
Y476772D1*
X524411Y483858D2*
Y476771D1*
X1113386Y202165D2*
Y195079D1*
X1075591Y202165D2*
Y195079D1*
X66924Y216535D2*
X15748D1*
Y153543D1*
X66924D2*
X15748D1*
X145669Y216535D2*
X94493D1*
X145669D2*
Y153543D1*
X94493D1*
X1214567Y655524D2*
D10*
G02X1214567Y655524I13769J0D01*
G01*
X1269711Y692911D2*
D26*
X1899605Y692930D1*
X1269730Y62990D2*
X1899623Y63009D1*
X2073237Y143981D2*
D16*
G03X2073236Y173981I-21678J15000D01*
G01*
X2087738Y127981D2*
G03X2087737Y187981I-32854J29999D01*
G01*
X2103237Y110981D2*
G03X2103235Y200981I-44998J44999D01*
G01*
X3936Y123226D2*
D13*
X3939Y18502D1*
X1237797Y18538D1*
X1237794Y123262D1*
X3936Y123226D1*
G36*
X61179Y139999D2*
X61262Y141263D1*
X61509Y142506D1*
X61916Y143706D1*
X62477Y144842D1*
X63181Y145895D1*
X64016Y146848D1*
X64968Y147683D1*
X66022Y148387D1*
X67158Y148947D1*
X68357Y149355D1*
X69600Y149602D1*
X70864Y149685D1*
X72128Y149602D1*
X73371Y149355D1*
X74570Y148948D1*
X75707Y148387D1*
X76760Y147683D1*
X77713Y146848D1*
X78548Y145896D1*
X79252Y144842D1*
X79812Y143706D1*
X80219Y142507D1*
X80466Y141264D1*
X80549Y140000D1*
D1*
X80467Y138736D1*
X80219Y137493D1*
X79812Y136294D1*
X79252Y135157D1*
X78548Y134104D1*
X77713Y133151D1*
X76760Y132316D1*
X75707Y131612D1*
X74571Y131052D1*
X73371Y130645D1*
X72129Y130397D1*
X70865Y130315D1*
X69600Y130397D1*
X68358Y130644D1*
X67158Y131052D1*
X66022Y131612D1*
X64969Y132316D1*
X64016Y133151D1*
X63181Y134103D1*
X62477Y135157D1*
X61917Y136293D1*
X61509Y137493D1*
X61262Y138735D1*
X61179Y139999D1*
D1*
G37*
X3936Y723226D2*
D13*
X3939Y618502D1*
X1237797Y618538D1*
X1237794Y723262D1*
X3936Y723226D1*
G36*
X61179Y739999D2*
X61262Y741263D1*
X61509Y742506D1*
X61916Y743706D1*
X62477Y744842D1*
X63181Y745895D1*
X64016Y746848D1*
X64968Y747683D1*
X66022Y748387D1*
X67158Y748947D1*
X68357Y749355D1*
X69600Y749602D1*
X70864Y749685D1*
X72128Y749602D1*
X73371Y749355D1*
X74570Y748948D1*
X75707Y748387D1*
X76760Y747683D1*
X77713Y746848D1*
X78548Y745896D1*
X79252Y744842D1*
X79812Y743706D1*
X80219Y742507D1*
X80466Y741264D1*
X80549Y740000D1*
D1*
X80467Y738736D1*
X80219Y737493D1*
X79812Y736294D1*
X79252Y735157D1*
X78548Y734104D1*
X77713Y733151D1*
X76760Y732316D1*
X75707Y731612D1*
X74571Y731052D1*
X73371Y730645D1*
X72129Y730397D1*
X70865Y730315D1*
X69600Y730397D1*
X68358Y730644D1*
X67158Y731052D1*
X66022Y731612D1*
X64969Y732316D1*
X64016Y733151D1*
X63181Y734103D1*
X62477Y735157D1*
X61917Y736293D1*
X61509Y737493D1*
X61262Y738735D1*
X61179Y739999D1*
D1*
G37*
X1933071Y723228D2*
D13*
Y618504D1*
X2166929D1*
Y723228D1*
X1933071D1*
G36*
X1990315Y740000D2*
X1990398Y741264D1*
X1990645Y742507D1*
X1991052Y743706D1*
X1991613Y744843D1*
X1992316Y745896D1*
X1993152Y746848D1*
X1994104Y747684D1*
X1995157Y748387D1*
X1996294Y748948D1*
X1997493Y749355D1*
X1998736Y749602D1*
X2000000Y749685D1*
X2001264Y749602D1*
X2002507Y749355D1*
X2003706Y748948D1*
X2004843Y748387D1*
X2005896Y747684D1*
X2006848Y746848D1*
X2007684Y745896D1*
X2008387Y744843D1*
X2008948Y743706D1*
X2009355Y742507D1*
X2009602Y741264D1*
X2009685Y740000D1*
D1*
X2009602Y738736D1*
X2009355Y737493D1*
X2008948Y736294D1*
X2008387Y735157D1*
X2007684Y734104D1*
X2006848Y733152D1*
X2005896Y732316D1*
X2004843Y731613D1*
X2003706Y731052D1*
X2002507Y730645D1*
X2001264Y730398D1*
X2000000Y730315D1*
X1998736Y730398D1*
X1997493Y730645D1*
X1996294Y731052D1*
X1995157Y731613D1*
X1994104Y732316D1*
X1993152Y733152D1*
X1992316Y734104D1*
X1991613Y735157D1*
X1991052Y736294D1*
X1990645Y737493D1*
X1990398Y738736D1*
X1990315Y740000D1*
D1*
G37*
X464764Y485038D2*
D24*
X455315D1*
X464763Y522833D2*
X455315D1*
X108359Y247150D2*
D33*
X76371Y247149D1*
X76370Y269149D1*
X76367Y359151D2*
X108355Y359152D1*
X76368Y337151D2*
X76367Y359151D1*
X1183268Y272441D2*
D24*
X1167520D1*
X1183268Y310236D2*
X1167520D1*
X1130709Y190748D2*
Y206496D1*
X1168504Y190748D2*
Y206496D1*
X1024409Y190748D2*
Y206496D1*
X1062205Y190748D2*
Y206496D1*
X545473Y276378D2*
X529725D1*
X545472Y314173D2*
X529724D1*
X356496Y429921D2*
X340748D1*
X356496Y467717D2*
X340748D1*
X107283Y476380D2*
X107284Y460632D1*
X69488Y476378D2*
X69489Y460630D1*
X1014766Y452758D2*
D10*
X621067Y452730D1*
X621080Y279502D1*
X1014778Y279529D1*
X1014773Y346465D1*
X1014770Y385822D2*
X1014766Y452758D1*
X1014770Y385822D2*
G03X1014773Y346465I-5J-19678D01*
G01*
G36*
X137094Y550539D2*
X137160Y551543D1*
X137357Y552531D1*
X137680Y553484D1*
X138126Y554387D1*
X138685Y555225D1*
X139349Y555982D1*
X140106Y556646D1*
X140943Y557205D1*
X141846Y557650D1*
X142800Y557974D1*
X143787Y558170D1*
X144792Y558236D1*
X145797Y558170D1*
X146784Y557974D1*
X147738Y557650D1*
X148641Y557205D1*
X149478Y556646D1*
X150235Y555982D1*
X150899Y555225D1*
X151458Y554387D1*
X151904Y553484D1*
X152227Y552531D1*
X152424Y551543D1*
X152490Y550539D1*
Y550533D1*
X152424Y549529D1*
X152227Y548541D1*
X151904Y547588D1*
X151458Y546685D1*
X150899Y545848D1*
X150235Y545091D1*
X149478Y544427D1*
X148641Y543867D1*
X147738Y543422D1*
X146784Y543098D1*
X145797Y542902D1*
X144792Y542836D1*
X143787Y542902D1*
X142800Y543098D1*
X141846Y543422D1*
X140943Y543867D1*
X140106Y544427D1*
X139349Y545091D1*
X138685Y545848D1*
X138126Y546685D1*
X137680Y547588D1*
X137357Y548541D1*
X137160Y549529D1*
X137094Y550533D1*
Y550539D1*
G37*
X198857Y545273D2*
D10*
Y427165D1*
X230348Y545273D2*
Y427165D1*
X198857D2*
X230348D1*
X198857Y545273D2*
X230348D1*
X453293Y397840D2*
D64*
X451391Y401643D1*
X447544Y405489D1*
X443742Y407391D1*
X436092Y407390D1*
X432246Y405489D1*
X428443Y401642D1*
X426498Y397839D1*
X424597Y392091D1*
X424598Y382496D1*
X426499Y376792D1*
X428445Y372946D1*
X432248Y369143D1*
X436094Y367198D1*
X443744Y367199D1*
X447546Y369144D1*
X451393Y372947D1*
X453294Y376794D1*
X465644Y399698D2*
X469491Y401644D1*
X475238Y407348D1*
X475240Y367200D1*
X306044Y390908D2*
X304143Y394711D1*
X300296Y398558D1*
X296493Y400459D1*
X288844D1*
X284997Y398558D1*
X281195Y394711D1*
X279249Y390908D1*
X277348Y385160D1*
Y375566D1*
X279249Y369862D1*
X281195Y366015D1*
X284997Y362213D1*
X288844Y360267D1*
X296493D1*
X300296Y362213D1*
X304143Y366015D1*
X306044Y369862D1*
X320341Y390864D2*
Y392766D1*
X322242Y396612D1*
X324143Y398514D1*
X327990Y400415D1*
X335639D1*
X339442Y398514D1*
X341343Y396612D1*
X343289Y392766D1*
Y388963D1*
X341343Y385116D1*
X337541Y379412D1*
X318395Y360267D1*
X345190D1*
X1944673Y543201D2*
X1940870Y541300D1*
X1937024Y537453D1*
X1935122Y533651D1*
Y526002D1*
X1937024Y522155D1*
X1940870Y518352D1*
X1944673Y516407D1*
X1950421Y514506D1*
X1960016D1*
X1965720Y516407D1*
X1969566Y518352D1*
X1973369Y522155D1*
X1975314Y526002D1*
Y533651D1*
X1973369Y537453D1*
X1969566Y541300D1*
X1965720Y543201D1*
X1935167Y559400D2*
Y580402D1*
X1950465Y568950D1*
Y574698D1*
X1952366Y578501D1*
X1954268Y580402D1*
X1960016Y582348D1*
X1963818D1*
X1969566Y580402D1*
X1973413Y576599D1*
X1975314Y570851D1*
Y565103D1*
X1973413Y559400D1*
X1971468Y557498D1*
X1967665Y555553D1*
X2030106Y541068D2*
X2026303Y539167D1*
X2022457Y535320D1*
X2020555Y531518D1*
Y523869D1*
X2022457Y520022D1*
X2026303Y516219D1*
X2030106Y514274D1*
X2035854Y512372D1*
X2045449D1*
X2051153Y514274D1*
X2054999Y516219D1*
X2058802Y520022D1*
X2060747Y523869D1*
Y531518D1*
X2058802Y535320D1*
X2054999Y539167D1*
X2051153Y541068D1*
X2060747Y572565D2*
X2020600D1*
X2047350Y553420D1*
Y582116D1*
X417861Y252181D2*
X415959Y255983D1*
X412113Y259830D1*
X408310Y261732D1*
X400661D1*
X396814Y259831D1*
X393011Y255984D1*
X391066Y252182D1*
X389164Y246434D1*
Y236839D1*
X391065Y231135D1*
X393010Y227288D1*
X396813Y223486D1*
X400660Y221540D1*
X408309D1*
X412112Y223485D1*
X415958Y227287D1*
X417860Y231134D1*
X453160Y261686D2*
X434059Y261687D1*
X432157Y244487D1*
X434058Y246388D1*
X439807Y248333D1*
X445510D1*
X451258Y246387D1*
X455105Y242585D1*
X457006Y236837D1*
Y233034D1*
X455104Y227286D1*
X451258Y223440D1*
X445509Y221538D1*
X439806Y221539D1*
X434058Y223440D1*
X432156Y225386D1*
X430211Y229188D1*
X34927Y591514D2*
X33026Y595316D1*
X29179Y599163D1*
X25376Y601064D1*
X17727D1*
X13880Y599162D1*
X10078Y595316D1*
X8133Y591513D1*
X6231Y585765D1*
X6232Y576170D1*
X8133Y570466D1*
X10079Y566620D1*
X13881Y562817D1*
X17728Y560872D1*
X25377D1*
X29180Y562818D1*
X33027Y566620D1*
X34928Y570467D1*
X70226Y595317D2*
X68325Y599120D1*
X62577Y601021D1*
X58774D1*
X53026Y599119D1*
X49180Y593371D1*
X47279Y583820D1*
Y574270D1*
X49181Y566621D1*
X53027Y562774D1*
X58775Y560873D1*
X60677D1*
X66381Y562774D1*
X70227Y566621D1*
X72128Y572369D1*
Y574271D1*
X70227Y580019D1*
X66380Y583821D1*
X60676Y585722D1*
X58775D1*
X53027Y583821D1*
X49180Y580018D1*
X47279Y574270D1*
X219184Y221617D2*
X217283Y225420D1*
X213436Y229266D1*
X209634Y231168D1*
X201985D1*
X198138Y229266D1*
X194335Y225420D1*
X192390Y221617D1*
X190488Y215869D1*
Y206274D1*
X192390Y200570D1*
X194335Y196724D1*
X198138Y192921D1*
X201985Y190976D1*
X209634D1*
X213436Y192921D1*
X217283Y196724D1*
X219184Y200570D1*
X239185Y190976D2*
X258330Y231123D1*
X231536D1*
X602523Y568074D2*
X600621Y571876D1*
X596775Y575723D1*
X592972Y577624D1*
X585323D1*
X581476Y575723D1*
X577674Y571876D1*
X575728Y568074D1*
X573827Y562326D1*
Y552731D1*
X575728Y547027D1*
X577674Y543180D1*
X581476Y539378D1*
X585323Y537432D1*
X592972D1*
X596775Y539378D1*
X600621Y543180D1*
X602523Y547027D1*
X624425Y577580D2*
X618721Y575679D1*
X616775Y571876D1*
Y568030D1*
X618721Y564227D1*
X622523Y562282D1*
X630173Y560380D1*
X635921Y558479D1*
X639723Y554632D1*
X641625Y550830D1*
Y545082D1*
X639723Y541279D1*
X637822Y539334D1*
X632074Y537432D1*
X624425D1*
X618721Y539334D1*
X616775Y541279D1*
X614874Y545082D1*
Y550830D1*
X616775Y554632D1*
X620622Y558479D1*
X626326Y560380D1*
X633975Y562282D1*
X637822Y564227D1*
X639723Y568030D1*
Y571876D1*
X637822Y575679D1*
X632074Y577580D1*
X624425D1*
X519347Y572010D2*
X517445Y575813D1*
X513598Y579659D1*
X509796Y581561D1*
X502146Y581560D1*
X498300Y579659D1*
X494497Y575812D1*
X492552Y572010D1*
X490651Y566261D1*
Y556667D1*
X492552Y550963D1*
X494498Y547116D1*
X498301Y543314D1*
X502147Y541368D1*
X509797Y541369D1*
X513599Y543314D1*
X517446Y547117D1*
X519347Y550964D1*
X556591Y568164D2*
X554646Y562416D1*
X550844Y558569D1*
X545096Y556668D1*
X543194D1*
X537446Y558569D1*
X533644Y562416D1*
X531698Y568164D1*
Y570065D1*
X533643Y575813D1*
X537446Y579616D1*
X543194Y581517D1*
X545095D1*
X550843Y579616D1*
X554646Y575814D1*
X556591Y568164D1*
X556592Y558570D1*
X554646Y549019D1*
X550844Y543271D1*
X545096Y541369D1*
X541294D1*
X535545Y543270D1*
X533644Y547117D1*
X669235Y175800D2*
X667334Y179602D1*
X663487Y183449D1*
X659684Y185350D1*
X652035D1*
X648188Y183449D1*
X644386Y179602D1*
X642440Y175800D1*
X640539Y170052D1*
Y160457D1*
X642440Y154753D1*
X644386Y150906D1*
X648188Y147104D1*
X652035Y145158D1*
X659684D1*
X663487Y147104D1*
X667334Y150906D1*
X669235Y154753D1*
X681586Y177657D2*
X685433Y179602D1*
X691181Y185306D1*
Y145158D1*
X715029Y185306D2*
X709281Y183405D1*
X705434Y177657D1*
X703532Y168106D1*
Y162358D1*
X705434Y152807D1*
X709281Y147059D1*
X715029Y145158D1*
X718831D1*
X724579Y147059D1*
X728382Y152807D1*
X730327Y162358D1*
Y168106D1*
X728382Y177657D1*
X724579Y183405D1*
X718831Y185306D1*
X715029D1*
X728382Y177657D2*
X705434Y152807D1*
X1068000Y289449D2*
X1064197Y287548D1*
X1060350Y283701D1*
X1058449Y279898D1*
Y272249D1*
X1060350Y268402D1*
X1064197Y264600D1*
X1068000Y262654D1*
X1073748Y260753D1*
X1083342D1*
X1089046Y262654D1*
X1092893Y264600D1*
X1096696Y268402D1*
X1098641Y272249D1*
Y279898D1*
X1096696Y283701D1*
X1092893Y287548D1*
X1089046Y289449D1*
X1066143Y301800D2*
X1064197Y305647D1*
X1058493Y311395D1*
X1098641D1*
X1066143Y323747D2*
X1064197Y327593D1*
X1058493Y333341D1*
X1098641D1*
X188481Y164878D2*
X163588D1*
Y124686D1*
Y145732D2*
X178887D1*
X200833Y157184D2*
X204680Y159130D1*
X210428Y164833D1*
Y124686D1*
X1440941Y672757D2*
X1440942Y632565D1*
X1481988Y663208D2*
X1480087Y667010D1*
X1476240Y670857D1*
X1472438Y672758D1*
X1464788D1*
X1460942Y670857D1*
X1457139Y667010D1*
X1455194Y663207D1*
X1453293Y657459D1*
Y647864D1*
X1455194Y642160D1*
X1457140Y638314D1*
X1460943Y634511D1*
X1464789Y632566D1*
X1472439D1*
X1476241Y634512D1*
X1480088Y638314D1*
X1481989Y642161D1*
X1494340Y665065D2*
X1498186Y667011D1*
X1503934Y672715D1*
X1503935Y632567D1*
X347083Y176782D2*
X347084Y146184D1*
X345183Y140436D1*
X343238Y138535D1*
X339435Y136589D1*
X335589D1*
X331786Y138535D1*
X329885Y140436D1*
X327939Y146184D1*
Y149986D1*
X361381Y167187D2*
Y169089D1*
X363282Y172935D1*
X365183Y174837D1*
X369030Y176738D1*
X376679D1*
X380481Y174837D1*
X382383Y172936D1*
X384328Y169089D1*
X384329Y165287D1*
X382383Y161440D1*
X378581Y155736D1*
X359436Y136590D1*
X386231Y136591D1*
X339208Y610856D2*
X339209Y580259D1*
X337307Y574511D1*
X335362Y572610D1*
X331560Y570664D1*
X327713D1*
X323910Y572609D1*
X322009Y574511D1*
X320063Y580258D1*
Y584061D1*
X374507Y610813D2*
X355406D1*
X353505Y593613D1*
X355406Y595514D1*
X361154Y597460D1*
X366858D1*
X372606Y595514D1*
X376453Y591712D1*
X378354Y585964D1*
X378355Y582161D1*
X376454Y576413D1*
X372607Y572567D1*
X366859Y570665D1*
X361155D1*
X355407Y572566D1*
X353506Y574511D1*
X351560Y578314D1*
X2115776Y599602D2*
Y569005D1*
X2113874Y563257D1*
X2111929Y561356D1*
X2108126Y559410D1*
X2104279D1*
X2100477Y561356D1*
X2098576Y563257D1*
X2096630Y569005D1*
Y572807D1*
X2151075Y593854D2*
X2149174Y597657D1*
X2143426Y599558D1*
X2139623D1*
X2133875Y597657D1*
X2130028Y591909D1*
X2128127Y582358D1*
Y572807D1*
X2130028Y565158D1*
X2133875Y561311D1*
X2139623Y559410D1*
X2141524D1*
X2147228Y561311D1*
X2151075Y565158D1*
X2152976Y570906D1*
Y572807D1*
X2151075Y578555D1*
X2147228Y582358D1*
X2141524Y584259D1*
X2139623D1*
X2133875Y582358D1*
X2130028Y578555D1*
X2128127Y572807D1*
X428197Y581559D2*
X428198Y541367D1*
X451146Y541368D1*
X463496Y573867D2*
X467343Y575812D1*
X473091Y581516D1*
X473092Y541368D1*
X17729Y376832D2*
X13926Y374974D1*
X10080Y371127D1*
X8178Y367281D1*
X6233Y361533D1*
Y351982D1*
X8179Y346234D1*
X10081Y342432D1*
X13927Y338585D1*
X17730Y336684D1*
X25379D1*
X29226Y338585D1*
X33028Y342432D1*
X34930Y346235D1*
X36875Y351983D1*
Y361534D1*
X34929Y367282D1*
X33027Y371128D1*
X29225Y374975D1*
X25378Y376832D1*
X17729D1*
X23478Y344333D2*
X34930Y332838D1*
X49226Y369139D2*
X53072Y371085D1*
X58820Y376789D1*
X58822Y336641D1*
X1151023Y343665D2*
X1168223D1*
X1173971Y345611D1*
X1175917Y347512D1*
X1177818Y351315D1*
Y355161D1*
X1175917Y358964D1*
X1173971Y360909D1*
X1168223Y362811D1*
X1151023D1*
Y322619D1*
X1164421Y343665D2*
X1177818Y322619D1*
X1190169Y355117D2*
X1194016Y357063D1*
X1199764Y362767D1*
Y322619D1*
X1177891Y166550D2*
X1195090D1*
X1200838Y168495D1*
X1202784Y170397D1*
X1204685Y174199D1*
Y178046D1*
X1202784Y181848D1*
X1200838Y183794D1*
X1195090Y185695D1*
X1177891D1*
Y145503D1*
X1191288Y166550D2*
X1204685Y145503D1*
X1218982Y176100D2*
Y178002D1*
X1220883Y181848D1*
X1222785Y183750D1*
X1226631Y185651D1*
X1234281D1*
X1238083Y183750D1*
X1239985Y181848D1*
X1241930Y178002D1*
Y174199D1*
X1239985Y170352D1*
X1236182Y164649D1*
X1217037Y145503D1*
X1243831D1*
X941194Y162613D2*
X958394D1*
X964142Y164558D1*
X966087Y166460D1*
X967988Y170262D1*
Y174109D1*
X966087Y177911D1*
X964142Y179857D1*
X958394Y181758D1*
X941194D1*
Y141566D1*
X954591Y162613D2*
X967988Y141566D1*
X984187Y181714D2*
X1005189D1*
X993737Y166415D1*
X999485D1*
X1003288Y164514D1*
X1005189Y162613D1*
X1007134Y156865D1*
Y153062D1*
X1005189Y147314D1*
X1001386Y143468D1*
X995638Y141566D1*
X989890D1*
X984187Y143468D1*
X982285Y145413D1*
X980340Y149216D1*
X413126Y297698D2*
X430326D1*
X436074Y299644D1*
X438019Y301545D1*
X439921Y305348D1*
Y309195D1*
X438019Y312997D1*
X436074Y314943D1*
X430326Y316844D1*
X413126Y316843D1*
X413127Y276651D1*
X426524Y297698D2*
X439921Y276652D1*
X471418Y276653D2*
X471417Y316801D1*
X452272Y290050D1*
X480968D1*
X324498Y505083D2*
X341698D1*
X347446Y507028D1*
X349392Y508929D1*
X351293Y512732D1*
Y516579D1*
X349392Y520381D1*
X347446Y522327D1*
X341698Y524228D1*
X324498D1*
Y484036D1*
X337896Y505083D2*
X351293Y484036D1*
X386592Y518480D2*
X384691Y522283D1*
X378943Y524184D1*
X375141D1*
X369393Y522283D1*
X365546Y516535D1*
X363645Y506984D1*
Y497433D1*
X365546Y489784D1*
X369393Y485937D1*
X375141Y484036D1*
X377042D1*
X382746Y485937D1*
X386592Y489784D1*
X388494Y495532D1*
Y497433D1*
X386592Y503181D1*
X382746Y506984D1*
X377042Y508885D1*
X375141D1*
X369393Y506984D1*
X365546Y503181D1*
X363645Y497433D1*
X110536Y395580D2*
X127736Y395581D1*
X133484Y397527D1*
X135429Y399428D1*
X137331Y403231D1*
X137330Y407078D1*
X135429Y410880D1*
X133483Y412825D1*
X127735Y414726D1*
X110535Y414725D1*
X110537Y374533D1*
X123934Y395581D2*
X137332Y374535D1*
X157333Y374536D2*
X176476Y414685D1*
X149681Y414683D1*
X1038283Y443768D2*
X1038285Y415072D1*
X1040187Y409325D1*
X1044034Y405522D1*
X1049782Y403577D1*
X1053584D1*
X1059332Y405523D1*
X1063179Y409326D1*
X1065080Y415074D1*
X1065078Y443770D1*
X1077430Y436078D2*
X1081276Y438023D1*
X1087024Y443728D1*
X1087027Y403580D1*
X215695Y601067D2*
Y572371D1*
X217596Y566623D1*
X221443Y562820D1*
X227191Y560875D1*
X230994D1*
X236742Y562820D1*
X240588Y566623D1*
X242490Y572371D1*
Y601067D1*
X256787Y591472D2*
Y593373D1*
X258688Y597220D1*
X260589Y599121D1*
X264436Y601022D1*
X272085D1*
X275888Y599121D1*
X277789Y597220D1*
X279734Y593373D1*
Y589571D1*
X277789Y585724D1*
X273986Y580020D1*
X254841Y560875D1*
X281636D1*
M02*
