M48
INCH
T01C0.0126
T02C0.0315
T03C0.0504
%
T01
X+005827Y+004331
X+006575Y+004291
X+007028Y+004409
X+007402Y+003110
X+007795Y+003228
X+008189Y+003071
X+008622Y+003189
X+008642Y+003760
X+009134Y+003780
X+008819Y+004449
X+010315Y+004724
X+010669Y+005039
X+010433Y+005433
X+011260Y+005236
X+011693Y+005236
X+011693Y+004488
X+012126Y+004449
X+012126Y+003740
X+012362Y+003307
X+012441Y+002402
X+012008Y+002441
X+010984Y+003110
X+010787Y+002717
X+014055Y+001024
X+017520Y+000866
X+017717Y+000472
X+018268Y+000433
X+018740Y+000433
X+019213Y+000433
X+019685Y+000433
X+020118Y+000433
X+020630Y+000433
X+021220Y+000433
X+021181Y+002480
X+020630Y+002520
X+020118Y+002520
X+019646Y+002520
X+019370Y+002087
X+018937Y+001811
X+018465Y+001811
X+017953Y+001811
X+017520Y+001772
X+017520Y+001339
X+016614Y+004843
X+016260Y+005157
X+016575Y+005630
X+016929Y+005236
X+019567Y+005197
X+020394Y+005236
X+021063Y+005079
X+021102Y+004606
X+014055Y+006535
X+006260Y+002205
X+004449Y+002677
X+004094Y+002244
X+003780Y+003661
X+004213Y+003780
X+004724Y+004528
X+003780Y+004961
X+003504Y+005394
X+002992Y+005748
X+002559Y+005866
X+000906Y+005394
X+001693Y+002205
T02
X+019885Y+001575
T03
X+000709Y+000709
X+001709Y+000709
X+002709Y+000709
X+003709Y+000709
X+004709Y+000709
X+005709Y+000709
X+006709Y+000709
X+007709Y+000709
X+008709Y+000709
X+009709Y+000709
X+010709Y+000709
X+011709Y+000709
X+011709Y+006709
X+010709Y+006709
X+009709Y+006709
X+008709Y+006709
X+007709Y+006709
X+006709Y+006709
X+005709Y+006709
X+004709Y+006709
X+003709Y+006709
X+002709Y+006709
X+001709Y+006709
X+000709Y+006709
X+020000Y+006709
X+021000Y+006709
T00
M30
